<svg width="90" height="28" viewBox="0 0 90 28" fill="none" xmlns="http://www.w3.org/2000/svg">
<path d="M88.9691 17.6419C88.8432 17.641 88.7185 17.6661 88.6027 17.7154C88.487 17.7648 88.3826 17.8375 88.2961 17.9289C87.3871 18.8669 86.1981 19.4389 84.8131 19.4389C84.0358 19.4402 83.2699 19.2528 82.5811 18.8929C80.7671 17.9459 79.5941 15.8779 79.9201 13.5739C80.2761 11.0449 82.4871 9.16289 84.9651 9.23589C86.2871 9.27589 87.4221 9.83989 88.2991 10.7449C88.3854 10.8362 88.4896 10.9087 88.6053 10.9579C88.7209 11.0071 88.8454 11.032 88.9711 11.0309C89.5251 11.0309 90.0001 10.5409 90.0001 10.0109C90.0001 9.76389 89.9221 9.48089 89.7221 9.27589C88.5925 8.09525 87.0727 7.36499 85.4451 7.22089C81.5321 6.87289 78.0101 10.0609 77.8881 14.1069C77.7661 18.1729 80.8981 21.4809 84.8131 21.4809C86.7531 21.4809 88.4551 20.7039 89.7221 19.3999C89.9201 19.1959 90.0001 18.9099 90.0001 18.6659C89.9981 18.1329 89.5221 17.6419 88.9691 17.6419ZM71.5351 15.0949C72.8181 14.3599 73.6701 12.9949 73.6291 11.3249C73.5741 8.99989 71.6341 7.18989 69.3791 7.18989H63.1401C62.5941 7.18989 62.1511 7.64689 62.1511 8.20989V20.0929C62.1511 20.6119 62.5091 21.0879 63.0071 21.1449C63.6231 21.2149 64.1301 20.7889 64.1301 20.1709V17.5799C64.1301 17.3799 64.2611 17.2079 64.4471 17.1599L67.9531 16.2649L69.4001 15.8849C69.4959 15.8604 69.5973 15.8709 69.686 15.9145C69.7747 15.9582 69.845 16.0321 69.8841 16.1229L71.8431 20.5629C72.0031 20.9279 72.3501 21.1429 72.7151 21.1429C72.9484 21.1411 73.173 21.0543 73.3471 20.8989C73.6771 20.6109 73.7461 20.1109 73.5671 19.7059L71.5351 15.0959V15.0949ZM64.1301 14.6749V9.58189C64.1301 9.34189 64.3181 9.15089 64.5481 9.15089H69.3151C70.6991 9.15089 71.6501 10.1309 71.6501 11.4389C71.6501 12.7459 70.8711 13.6899 69.2801 14.0409L64.6371 15.0969C64.575 15.1099 64.5107 15.1086 64.4492 15.0933C64.3877 15.078 64.3304 15.0489 64.2816 15.0084C64.2329 14.9678 64.1939 14.9167 64.1677 14.859C64.1414 14.8012 64.1286 14.7383 64.1301 14.6749ZM51.8901 7.96689C51.6801 7.51189 51.2351 7.23989 50.6981 7.23989C50.1611 7.23989 49.7151 7.51189 49.5061 7.96489L44.0441 19.7069C43.9731 19.8519 43.9341 20.0319 43.9341 20.1949C43.9341 20.7519 44.3561 21.1709 44.9191 21.1709C45.1082 21.1765 45.2946 21.1252 45.4542 21.0235C45.6138 20.9219 45.7392 20.7747 45.8141 20.6009L46.8311 18.4289C47.2875 18.5953 47.7567 18.7244 48.2341 18.8149C49.0261 18.9659 49.8241 19.0179 50.6111 19.0089C51.4011 19.0019 52.1791 18.9049 52.9461 18.7739C53.3291 18.7079 53.7061 18.6109 54.0871 18.5309L54.5531 18.3979L55.5771 20.5859C55.6512 20.7631 55.777 20.9139 55.938 21.0187C56.0991 21.1234 56.288 21.1771 56.4801 21.1729C57.1181 21.1729 57.4621 20.6709 57.4621 20.1979C57.4621 20.0319 57.4211 19.8539 57.3571 19.7169L51.8901 7.96689ZM52.6471 17.0069C51.9611 17.1239 51.2671 17.2119 50.5811 17.2169C49.8941 17.2229 49.2111 17.1809 48.5511 17.0529C48.2249 16.9918 47.9035 16.9079 47.5891 16.8019L48.4091 15.0469H48.4061L50.3191 10.9619C50.3517 10.8894 50.4047 10.8279 50.4714 10.7847C50.5382 10.7416 50.6161 10.7186 50.6956 10.7186C50.7751 10.7186 50.8529 10.7416 50.9197 10.7847C50.9865 10.8279 51.0394 10.8894 51.0721 10.9619L52.8331 14.7219L52.9211 14.9099L52.9851 15.0469L53.7821 16.7539L53.6721 16.7849C53.3321 16.8589 52.9921 16.9479 52.6471 17.0069ZM32.0351 9.30689C32.2471 8.24889 32.0791 7.17689 31.5671 6.28789C30.9751 5.26489 30.0291 4.57389 28.8991 4.34189C28.6332 4.28719 28.3624 4.26038 28.0911 4.26189C26.1711 4.26189 24.5551 5.64889 24.1601 7.63289C23.9433 8.6988 23.543 9.71896 22.9771 10.6479C22.9669 10.6651 22.9522 10.6793 22.9346 10.6888C22.917 10.6983 22.8971 10.7028 22.8771 10.7019C22.8555 10.7011 22.8347 10.6942 22.817 10.682C22.7993 10.6698 22.7854 10.6527 22.7771 10.6329L19.0121 2.46289C18.4911 1.33389 17.5631 0.49589 16.4661 0.16489C14.5901 -0.40411 12.5441 0.54089 11.7041 2.36189L7.80706 10.8109C7.80328 10.8191 7.79723 10.8262 7.78961 10.8311C7.782 10.8361 7.77314 10.8388 7.76406 10.8389C7.73606 10.8389 7.73106 10.8229 7.72706 10.8109C7.10906 9.23589 5.64706 8.21789 3.99806 8.21789C3.46506 8.21789 2.94406 8.32689 2.44806 8.53989C1.45606 8.96589 0.69206 9.77989 0.29006 10.8319C-0.107449 11.8685 -0.0960121 13.0174 0.322058 14.0459C1.05906 15.8639 2.29206 17.6189 3.88806 19.1199C3.92706 19.1559 3.93806 19.2099 3.91506 19.2579L2.65706 21.9899C1.70706 24.0529 2.50606 26.5459 4.43706 27.5499C4.99619 27.8438 5.61836 27.9976 6.25006 27.9979C7.79306 27.9979 9.22006 27.0689 9.88306 25.6319L10.9691 23.2759C10.9801 23.2508 10.9999 23.2307 11.0248 23.2193C11.0497 23.2079 11.0779 23.2059 11.1041 23.2139C12.4128 23.5905 13.7672 23.7849 15.1291 23.7919C16.5871 23.7919 18.0711 23.5689 19.5331 23.1319C19.5593 23.1234 19.5877 23.1249 19.6128 23.1362C19.638 23.1474 19.658 23.1677 19.6691 23.1929L20.7431 25.5259C21.4331 27.0199 22.8671 27.9899 24.4031 27.9999H24.4261C25.0575 28.0009 25.6796 27.8475 26.2381 27.5529C28.1681 26.5479 28.9661 24.0479 28.0101 21.9779L26.6531 19.0439C26.6428 19.021 26.64 18.9955 26.645 18.9709C26.6501 18.9463 26.6627 18.9239 26.6811 18.9069C29.4231 16.2899 31.3241 12.8809 32.0351 9.30689ZM9.20106 22.6899L8.22106 24.8159C8.04871 25.1962 7.77122 25.5194 7.4213 25.7472C7.07137 25.9751 6.66361 26.0981 6.24606 26.1019C5.90806 26.1019 5.58206 26.0239 5.27606 25.8679C4.21606 25.3249 3.78406 23.9519 4.31206 22.8029L5.35706 20.5349C5.3666 20.5141 5.38179 20.4965 5.40089 20.4839C5.41998 20.4714 5.44221 20.4644 5.46506 20.4639C5.48306 20.4639 5.50606 20.4689 5.52706 20.4849C6.64666 21.3045 7.85821 21.9905 9.13706 22.5289C9.17706 22.5449 9.19706 22.5789 9.20306 22.5969C9.20975 22.6115 9.21304 22.6275 9.21269 22.6436C9.21235 22.6597 9.20837 22.6755 9.20106 22.6899ZM18.7661 21.3449C18.7597 21.3596 18.7501 21.3727 18.7379 21.3833C18.7258 21.3939 18.7115 21.4016 18.6961 21.4059C17.5061 21.7309 16.3051 21.8959 15.1251 21.8959C9.66006 21.8959 3.88506 18.0789 1.97506 13.2079C1.52506 12.0579 2.06506 10.7429 3.18106 10.2769C3.44206 10.1669 3.71806 10.1109 3.99806 10.1109C4.89406 10.1109 5.68806 10.6629 6.02306 11.5199C7.27006 14.7029 11.4401 17.3929 15.1251 17.3929C15.6801 17.3929 16.2501 17.3379 16.8191 17.2289C16.8721 17.2189 16.9251 17.2429 16.9461 17.2929L18.7661 21.2399C18.773 21.2565 18.7766 21.2744 18.7766 21.2924C18.7766 21.3104 18.773 21.3283 18.7661 21.3449ZM14.2981 15.1619L15.0311 13.5709C15.0524 13.5219 15.0877 13.4802 15.1324 13.4511C15.1772 13.4219 15.2296 13.4066 15.2831 13.4069C15.3365 13.4072 15.3887 13.4229 15.4335 13.4519C15.4783 13.481 15.5139 13.5223 15.5361 13.5709L16.2521 15.1239C16.2712 15.1648 16.2806 15.2096 16.2793 15.2547C16.2781 15.2999 16.2664 15.3441 16.2451 15.3839C16.2255 15.4231 16.1968 15.457 16.1612 15.4826C16.1257 15.5082 16.0844 15.5248 16.0411 15.5309C15.5387 15.6073 15.0288 15.6207 14.5231 15.5709C14.4785 15.566 14.4359 15.5503 14.3988 15.5252C14.3617 15.5001 14.3312 15.4664 14.3101 15.4269C14.2873 15.3868 14.2743 15.3419 14.2722 15.2958C14.2701 15.2498 14.279 15.2039 14.2981 15.1619ZM25.3881 25.8679C25.0884 26.0222 24.7561 26.1025 24.4191 26.1019C24.002 26.0978 23.5947 25.9746 23.2454 25.7467C22.896 25.5189 22.619 25.1959 22.4471 24.8159L15.8691 10.5459C15.8235 10.4419 15.7487 10.3534 15.6537 10.2913C15.5587 10.2291 15.4476 10.196 15.3341 10.196C15.2205 10.196 15.1095 10.2291 15.0144 10.2913C14.9194 10.3534 14.8446 10.4419 14.7991 10.5459L12.7591 14.9719C12.7478 14.9973 12.7277 15.0178 12.7026 15.0296C12.6774 15.0413 12.6488 15.0436 12.6221 15.0359C11.2611 14.5529 9.98406 13.7409 9.02606 12.7539C9.01041 12.7365 9.00032 12.7148 8.99711 12.6917C8.99391 12.6685 8.99772 12.6449 9.00806 12.6239L13.4161 3.06189C13.5641 2.74189 13.7751 2.48389 14.0251 2.31589C14.6171 1.91589 15.2901 1.79689 15.9241 1.97889C16.2272 2.06804 16.5075 2.22147 16.746 2.42872C16.9845 2.63597 17.1755 2.89217 17.3061 3.17989L26.3531 22.8059C26.8831 23.9519 26.4491 25.3259 25.3881 25.8679ZM25.9141 17.0609C25.9005 17.0749 25.8838 17.0854 25.8654 17.0917C25.847 17.0979 25.8273 17.0997 25.8081 17.0969C25.7899 17.0935 25.7728 17.0856 25.7585 17.0739C25.7441 17.0622 25.733 17.0471 25.7261 17.0299L23.7971 12.8439C23.788 12.8241 23.7845 12.8021 23.787 12.7804C23.7894 12.7588 23.7978 12.7382 23.8111 12.7209C24.9011 11.2779 25.6481 9.63489 25.9711 7.96589C26.1761 6.91589 27.0741 6.15389 28.1091 6.15389H28.1111C28.2881 6.15389 28.4671 6.17789 28.6441 6.22289C29.7881 6.51589 30.4841 7.72889 30.2281 8.98289C29.6151 11.9839 28.1251 14.7759 25.9141 17.0609Z" fill="#7D7D7D"/>
</svg>
