<svg width="297" height="482" viewBox="0 0 297 482" fill="none" xmlns="http://www.w3.org/2000/svg">
<g clip-path="url(#clip0_1404_52101)">
<rect width="296.444" height="481.305" rx="33.3083" fill="white"/>
<g clip-path="url(#clip1_1404_52101)">
<g opacity="0.45">
<path fill-rule="evenodd" clip-rule="evenodd" d="M83.237 109.18C83.9291 108.78 84.1538 108.06 83.841 107.355L75.0467 89.3174L76.0741 88.2261C77.3158 86.9189 77.243 85.6511 76.3594 83.8922L68.6811 68.7337C64.2985 60.0662 40.6823 73.738 45.9671 81.8477L55.2697 96.0683C56.3591 97.7268 57.4127 98.4099 59.1657 97.9882L60.6244 97.6441L71.8483 114.279C72.3245 114.908 73.0382 115.068 73.7304 114.668L83.237 109.18Z" fill="#D2E7D9"/>
<path d="M105.557 95.3157L92.6239 72.9155C89.6683 67.7962 87.1278 67.4736 84.2885 69.1128C81.3645 70.801 80.3816 73.1763 83.2414 78.1296L96.262 100.682L82.4471 108.658L59.657 69.1844L73.4719 61.2084L74.9896 63.8372C76.4318 60.4957 78.3604 57.2791 83.1207 54.5308C91.9492 49.4336 99.5118 52.7785 105.503 63.1554L119.434 87.285L105.549 95.3018L105.557 95.3157Z" fill="#D2E7D9"/>
<path opacity="0.3" d="M82.4463 108.659L83.9719 107.778C83.9504 107.643 83.9129 107.48 83.8551 107.347L75.0608 89.3095L76.0882 88.2183C77.3299 86.9111 77.2571 85.6433 76.3735 83.8844L68.6953 68.7259C67.9492 67.238 66.6266 66.4152 64.9957 66.1023L59.6562 69.1851L82.4463 108.659Z" fill="#D2E7D9"/>
<path d="M31.7506 137.928L30.2328 135.299C28.7459 138.759 26.0852 142.306 22.3984 144.434C14.5728 148.952 6.61437 147.238 1.48601 138.355C-3.41869 129.86 0.0543327 122.044 8.5721 117.126C12.2589 114.998 15.1082 114.257 17.8931 113.959L16.7667 112.008C14.7697 108.549 12.1537 108.454 8.39623 110.623C4.25742 113.013 1.53875 115.579 -1.15986 119.941L-9.93021 113.069C-6.35649 107.906 -1.64688 103.472 5.3312 99.4428C16.6176 92.9266 24.7046 95.5813 30.0007 104.754L44.8027 130.392L31.7506 137.928ZM22.4604 121.837C20.5293 122.048 18.508 122.624 15.9089 124.125C13.0696 125.764 12.4854 128.112 14.043 130.81C15.4729 133.287 17.8189 134.349 20.8136 132.62C23.116 131.291 24.8993 129.062 25.5918 127.26L22.4604 121.837Z" fill="#D2E7D9"/>
<path d="M0.925482 156.831C-10.8977 163.657 -22.2182 160.36 -29.8947 147.064C-36.8843 134.957 -35.4011 122.977 -22.5044 115.531C-14.9048 111.144 -8.52884 112.074 -1.7862 115.598L-7.22497 128.164C-11.1431 125.815 -13.4012 124.905 -16.3959 126.634C-19.9273 128.672 -19.6959 133.151 -16.0933 139.391C-12.4907 145.631 -8.70036 147.759 -4.94294 145.59C-2.32969 144.081 -1.31613 141.596 -0.898355 136.447L11.7258 138.088C10.9201 147.555 8.05893 152.712 0.925482 156.831Z" fill="#D2E7D9"/>
<g opacity="0.3">
<path d="M11.6875 138.092L0.608192 136.648C0.863226 137.22 1.1545 137.79 1.48201 138.357C3.86247 142.48 6.85375 145.052 10.1414 146.179C10.9388 143.874 11.4339 141.208 11.6875 138.092Z" fill="#D2E7D9"/>
</g>
<path d="M54.2094 92.1792C51.3573 91.3169 48.5428 91.0417 45.8448 92.5994C42.4688 94.5486 41.303 97.3247 44.0828 102.14L56.4964 123.64L42.6815 131.616L19.8914 92.1429L33.7063 84.1669L35.3518 87.017C36.4229 83.3917 38.2981 80.4089 41.8295 78.37C44.7394 76.69 47.1367 76.2099 49.3142 76.2625L54.2094 92.1792Z" fill="#D2E7D9"/>
<path opacity="0.3" d="M45.9955 81.8322L52.4557 91.7168C53.0368 91.8425 53.6259 91.982 54.2168 92.1574L49.3296 76.2546C48.2368 76.2214 47.079 76.3364 45.8377 76.6657C45.0285 78.4611 44.954 80.2566 45.9955 81.8322Z" fill="#D2E7D9"/>
<path opacity="0.3" d="M22.9336 97.3787L42.6962 131.608L44.8009 130.393L29.9989 104.756C28.0339 101.352 25.6863 98.8517 22.9336 97.3787Z" fill="#D2E7D9"/>
<path d="M55.5297 57.381C57.5268 60.8399 56.2808 65.3042 52.7494 67.343C49.218 69.3819 44.7289 68.2288 42.7319 64.7698C40.7349 61.3109 41.9808 56.8466 45.5122 54.8078C49.0436 52.7689 53.5327 53.922 55.5297 57.381Z" fill="#D2E7D9"/>
</g>
<g opacity="0.45">
<path fill-rule="evenodd" clip-rule="evenodd" d="M239.965 18.692C240.658 18.2924 240.882 17.5723 240.57 16.8675L231.775 -1.1702L232.803 -2.26144C234.044 -3.56866 233.972 -4.83645 233.088 -6.59535L225.41 -21.7538C221.027 -30.4213 197.411 -16.7496 202.696 -8.63987L211.998 5.58075C213.088 7.2393 214.141 7.92236 215.894 7.50063L217.353 7.15652L228.577 23.7914C229.053 24.4205 229.767 24.5802 230.459 24.1806L239.965 18.692Z" fill="#D2E7D9"/>
<path d="M262.285 4.82811L249.352 -17.5721C246.397 -22.6913 243.856 -23.014 241.017 -21.3747C238.093 -19.6865 237.11 -17.3112 239.97 -12.358L252.991 10.1944L239.176 18.1704L216.386 -21.3032L230.2 -29.2792L231.718 -26.6504C233.16 -29.9919 235.089 -33.2084 239.849 -35.9568C248.678 -41.0539 256.24 -37.7091 262.231 -27.3322L276.163 -3.20252L262.277 4.81428L262.285 4.82811Z" fill="#D2E7D9"/>
<path opacity="0.3" d="M239.175 18.1711L240.7 17.2903C240.679 17.1551 240.641 16.9923 240.584 16.8596L231.789 -1.17801L232.817 -2.26925C234.058 -3.57647 233.986 -4.84426 233.102 -6.60315L225.424 -21.7616C224.678 -23.2495 223.355 -24.0724 221.724 -24.3852L216.385 -21.3025L239.175 18.1711Z" fill="#D2E7D9"/>
<path d="M188.479 47.4403L186.961 44.8115C185.474 48.2711 182.814 51.818 179.127 53.9466C171.301 58.4647 163.343 56.7504 158.215 47.8678C153.31 39.3726 156.783 31.5564 165.301 26.6387C168.987 24.5101 171.837 23.769 174.622 23.471L173.495 21.5201C171.498 18.0612 168.882 17.9666 165.125 20.1359C160.986 22.5255 158.267 25.0913 155.569 29.4534L146.798 22.5813C150.372 17.4188 155.082 12.984 162.06 8.95522C173.346 2.43902 181.433 5.09374 186.729 14.2669L201.531 39.9046L188.479 47.4403ZM179.189 31.3492C177.258 31.5602 175.236 32.1369 172.637 33.6375C169.798 35.2768 169.214 37.6249 170.772 40.3228C172.201 42.7995 174.547 43.8616 177.542 42.1327C179.845 40.8034 181.628 38.5747 182.32 36.7729L179.189 31.3492Z" fill="#D2E7D9"/>
<path d="M157.654 66.3429C145.831 73.169 134.51 69.8723 126.834 56.576C119.844 44.4697 121.327 32.4894 134.224 25.0435C141.824 20.6558 148.2 21.5866 154.942 25.1097L149.504 37.6766C145.585 35.3268 143.327 34.4168 140.333 36.1457C136.801 38.1846 137.033 42.663 140.635 48.9029C144.238 55.1429 148.028 57.2713 151.786 55.102C154.399 53.5932 155.412 51.1079 155.83 45.9596L168.454 47.5998C167.649 57.0674 164.787 62.2244 157.654 66.3429Z" fill="#D2E7D9"/>
<g opacity="0.3">
<path d="M153.679 27.9806L154.928 25.1197C152.26 23.7272 149.634 22.7345 146.987 22.3256C146.926 22.4161 146.865 22.5065 146.804 22.5969L153.679 27.9806Z" fill="#D2E7D9"/>
<path d="M168.416 47.6044L157.337 46.1608C157.592 46.733 157.883 47.3027 158.211 47.87C160.591 51.9931 163.582 54.5644 166.87 55.6917C167.667 53.3866 168.162 50.721 168.416 47.6044Z" fill="#D2E7D9"/>
</g>
<path d="M210.938 1.6916C208.086 0.829363 205.271 0.554195 202.573 2.11189C199.197 4.06104 198.031 6.83717 200.811 11.652L213.225 33.1529L199.41 41.1289L176.62 1.65534L190.435 -6.32069L192.08 -3.47051C193.151 -7.09586 195.027 -10.0786 198.558 -12.1175C201.468 -13.7975 203.865 -14.2776 206.043 -14.225L210.938 1.6916Z" fill="#D2E7D9"/>
<path opacity="0.3" d="M179.662 6.89111L199.425 41.1209L201.529 39.9058L186.727 14.268C184.762 10.8644 182.415 8.36416 179.662 6.89111Z" fill="#D2E7D9"/>
</g>
<g opacity="0.45">
<path fill-rule="evenodd" clip-rule="evenodd" d="M60.9479 38.5416C61.6401 38.142 61.8647 37.422 61.5519 36.7171L52.7576 18.6794L53.785 17.5882C55.0267 16.2809 54.9539 15.0132 54.0703 13.2543L46.3921 -1.90423C42.0094 -10.5717 18.3932 3.10004 23.678 11.2097L32.9807 25.4304C34.0701 27.0889 35.1237 27.772 36.8766 27.3502L38.3353 27.0061L49.5592 43.641C50.0354 44.2701 50.7492 44.4298 51.4413 44.0302L60.9479 38.5416Z" fill="#D2E7D9"/>
<path d="M83.2676 24.6777L70.3349 2.27753C67.3793 -2.84172 64.8387 -3.16436 61.9994 -1.52511C59.0754 0.163066 58.0926 2.53841 60.9523 7.49163L73.9729 30.044L60.158 38.02L37.368 -1.45354L51.1828 -9.42957L52.7006 -6.80077C54.1427 -10.1423 56.0713 -13.3588 60.8317 -16.1072C69.6602 -21.2043 77.2228 -17.8594 83.2139 -7.48258L97.1451 16.6471L83.2596 24.6639L83.2676 24.6777Z" fill="#D2E7D9"/>
<path opacity="0.3" d="M60.1573 38.0207L61.6828 37.1399C61.6613 37.0047 61.6238 36.8419 61.566 36.7092L52.7717 18.6716L53.7991 17.5804C55.0408 16.2731 54.9681 15.0054 54.0844 13.2465L46.4062 -1.91204C45.6602 -3.39989 44.3375 -4.22277 42.7067 -4.53564L37.3672 -1.45288L60.1573 38.0207Z" fill="#D2E7D9"/>
<path d="M9.46152 67.2899L7.94378 64.6611C6.45686 68.1207 3.79614 71.6677 0.109349 73.7962C-7.71626 78.3144 -15.6747 76.6 -20.8031 67.7174C-25.7078 59.2222 -22.2347 51.406 -13.717 46.4883C-10.0302 44.3597 -7.18089 43.6186 -4.396 43.3206L-5.52233 41.3697C-7.51935 37.9108 -10.1354 37.8162 -13.8928 39.9856C-18.0316 42.3751 -20.7503 44.9409 -23.4489 49.303L-32.2193 42.4309C-28.6455 37.2684 -23.9359 32.8336 -16.9579 28.8048C-5.67147 22.2886 2.41554 24.9433 7.71166 34.1165L22.5136 59.7543L9.46152 67.2899ZM0.171348 51.1988C-1.75977 51.4098 -3.78109 51.9865 -6.38021 53.4871C-9.21947 55.1264 -9.80371 57.4745 -8.24602 60.1725C-6.81615 62.6491 -4.47015 63.7113 -1.47551 61.9823C0.826969 60.653 2.61022 58.4243 3.30269 56.6225L0.171348 51.1988Z" fill="#D2E7D9"/>
<path d="M31.9204 21.5412C29.0683 20.679 26.2538 20.4038 23.5558 21.9615C20.1797 23.9106 19.0139 26.6868 21.7938 31.5016L34.2073 53.0025L20.3924 60.9785L-2.39767 21.505L11.4172 13.5289L13.0628 16.3791C14.1338 12.7537 16.009 9.77097 19.5405 7.7321C22.4503 6.05208 24.8476 5.57196 27.0251 5.62458L31.9204 21.5412Z" fill="#D2E7D9"/>
<path opacity="0.3" d="M23.7064 11.1945L30.1667 21.0791C30.7478 21.2048 31.3368 21.3443 31.9278 21.5197L27.0405 5.6169C25.9478 5.58368 24.7899 5.69871 23.5486 6.02797C22.7395 7.82338 22.6649 9.61895 23.7064 11.1945Z" fill="#D2E7D9"/>
<path opacity="0.3" d="M0.644531 26.7407L20.4071 60.9705L22.5118 59.7554L7.70986 34.1176C5.74479 30.714 3.39725 28.2138 0.644531 26.7407Z" fill="#D2E7D9"/>
</g>
<g opacity="0.45">
<path fill-rule="evenodd" clip-rule="evenodd" d="M108.561 183.02C109.253 182.62 109.478 181.9 109.165 181.195L100.371 163.157L101.398 162.066C102.64 160.759 102.567 159.491 101.684 157.732L94.0053 142.574C89.6227 133.906 66.0065 147.578 71.2913 155.688L80.594 169.908C81.6834 171.567 82.7369 172.25 84.4899 171.828L85.9486 171.484L97.1725 188.119C97.6487 188.748 98.3625 188.908 99.0546 188.508L108.561 183.02Z" fill="#D2E7D9"/>
<path d="M130.881 169.156L117.948 146.756C114.993 141.636 112.452 141.314 109.613 142.953C106.689 144.641 105.706 147.016 108.566 151.97L121.586 174.522L107.771 182.498L84.9812 143.024L98.7961 135.048L100.314 137.677C101.756 134.336 103.685 131.119 108.445 128.371C117.273 123.274 124.836 126.619 130.827 136.995L144.758 161.125L130.873 169.142L130.881 169.156Z" fill="#D2E7D9"/>
<path opacity="0.3" d="M107.771 182.499L109.296 181.618C109.275 181.483 109.237 181.32 109.179 181.187L100.385 163.15L101.412 162.058C102.654 160.751 102.581 159.483 101.698 157.724L94.0195 142.566C93.2735 141.078 91.9508 140.255 90.32 139.942L84.9805 143.025L107.771 182.499Z" fill="#D2E7D9"/>
<path d="M57.0748 211.768L55.5571 209.139C54.0701 212.599 51.4094 216.146 47.7226 218.274C39.897 222.792 31.9386 221.078 26.8102 212.195C21.9055 203.7 25.3786 195.884 33.8963 190.966C37.5831 188.838 40.4324 188.097 43.2173 187.799L42.091 185.848C40.0939 182.389 37.4779 182.294 33.7205 184.464C29.5816 186.853 26.863 189.419 24.1644 193.781L15.394 186.909C18.9677 181.746 23.6773 177.312 30.6554 173.283C41.9418 166.767 50.0288 169.421 55.3249 178.595L70.1269 204.232L57.0748 211.768ZM47.7846 195.677C45.8535 195.888 43.8322 196.465 41.2331 197.965C38.3938 199.604 37.8096 201.953 39.3673 204.65C40.7971 207.127 43.1431 208.189 46.1378 206.46C48.4403 205.131 50.2235 202.902 50.916 201.101L47.7846 195.677Z" fill="#D2E7D9"/>
<path d="M26.2497 230.671C14.4265 237.497 3.10605 234.2 -4.57053 220.904C-11.5601 208.797 -10.0769 196.817 2.8198 189.371C10.4194 184.983 16.7954 185.914 23.538 189.437L18.0993 202.004C14.1811 199.654 11.923 198.744 8.92836 200.473C5.39695 202.512 5.62827 206.991 9.23091 213.231C12.8335 219.471 16.6239 221.599 20.3813 219.43C22.9945 217.921 24.0081 215.436 24.4259 210.287L37.05 211.927C36.2444 221.395 33.3832 226.552 26.2497 230.671Z" fill="#D2E7D9"/>
<g opacity="0.3">
<path d="M22.2751 192.308L23.5239 189.447C20.8553 188.055 18.2292 187.062 15.5824 186.653C15.5216 186.744 15.4608 186.834 15.4 186.925L22.2751 192.308Z" fill="#D2E7D9"/>
<path d="M37.0117 211.932L25.9324 210.488C26.1874 211.061 26.4787 211.63 26.8062 212.198C29.1867 216.321 32.178 218.892 35.4656 220.019C36.263 217.714 36.7581 215.049 37.0117 211.932Z" fill="#D2E7D9"/>
</g>
<path d="M79.5336 166.019C76.6816 165.157 73.8671 164.882 71.1691 166.44C67.793 168.389 66.6272 171.165 69.4071 175.98L81.8206 197.481L68.0057 205.457L45.2156 165.983L59.0305 158.007L60.6761 160.857C61.7471 157.232 63.6223 154.249 67.1537 152.21C70.0636 150.53 72.4609 150.05 74.6384 150.103L79.5336 166.019Z" fill="#D2E7D9"/>
<path opacity="0.3" d="M71.3197 155.672L77.7799 165.557C78.361 165.683 78.9501 165.822 79.5411 165.997L74.6538 150.095C73.561 150.061 72.4032 150.176 71.1619 150.506C70.3528 152.301 70.2782 154.097 71.3197 155.672Z" fill="#D2E7D9"/>
<path opacity="0.3" d="M48.2578 171.219L68.0204 205.449L70.1251 204.233L55.3231 178.596C53.3581 175.192 51.0105 172.692 48.2578 171.219Z" fill="#D2E7D9"/>
<path d="M80.854 131.221C82.851 134.68 81.6051 139.144 78.0736 141.183C74.5422 143.222 70.0531 142.069 68.0561 138.61C66.0591 135.151 67.305 130.687 70.8364 128.648C74.3678 126.609 78.8569 127.762 80.854 131.221Z" fill="#D2E7D9"/>
</g>
<g opacity="0.45">
<path fill-rule="evenodd" clip-rule="evenodd" d="M265.29 92.5321C265.982 92.1325 266.207 91.4124 265.894 90.7075L257.099 72.6699L258.127 71.5786C259.368 70.2714 259.296 69.0036 258.412 67.2447L250.734 52.0863C246.351 43.4188 222.735 57.0905 228.02 65.2002L237.322 79.4208C238.412 81.0794 239.465 81.7625 241.218 81.3407L242.677 80.9966L253.901 97.6315C254.377 98.2605 255.091 98.4203 255.783 98.0207L265.29 92.5321Z" fill="#D2E7D9"/>
<path d="M287.609 78.6682L274.677 56.268C271.721 51.1488 269.18 50.8261 266.341 52.4654C263.417 54.1535 262.434 56.5289 265.294 61.4821L278.315 84.0345L264.5 92.0105L241.71 52.5369L255.525 44.5609L257.042 47.1897C258.484 43.8482 260.413 40.6317 265.173 37.8833C274.002 32.7861 281.565 36.131 287.556 46.5079L301.487 70.6376L287.601 78.6544L287.609 78.6682Z" fill="#D2E7D9"/>
<path opacity="0.3" d="M264.499 92.0112L266.025 91.1304C266.003 90.9952 265.966 90.8324 265.908 90.6997L257.114 72.6621L258.141 71.5708C259.383 70.2636 259.31 68.9958 258.426 67.2369L250.748 52.0784C250.002 50.5906 248.679 49.7677 247.048 49.4548L241.709 52.5376L264.499 92.0112Z" fill="#D2E7D9"/>
<path d="M213.803 121.28L212.286 118.652C210.799 122.111 208.138 125.658 204.451 127.787C196.626 132.305 188.667 130.59 183.539 121.708C178.634 113.213 182.107 105.397 190.625 100.479C194.312 98.3502 197.161 97.6091 199.946 97.3111L198.819 95.3602C196.822 91.9013 194.206 91.8067 190.449 93.976C186.31 96.3656 183.591 98.9314 180.893 103.293L172.123 96.4214C175.696 91.2588 180.406 86.8241 187.384 82.7953C198.67 76.2791 206.757 78.9338 212.053 88.107L226.855 113.745L213.803 121.28ZM204.513 105.189C202.582 105.4 200.561 105.977 197.962 107.478C195.122 109.117 194.538 111.465 196.096 114.163C197.526 116.64 199.872 117.702 202.866 115.973C205.169 114.643 206.952 112.415 207.644 110.613L204.513 105.189Z" fill="#D2E7D9"/>
<path d="M182.978 140.183C171.155 147.009 159.835 143.713 152.158 130.416C145.168 118.31 146.652 106.33 159.548 98.8838C167.148 94.4962 173.524 95.4269 180.267 98.9501L174.828 111.517C170.91 109.167 168.652 108.257 165.657 109.986C162.125 112.025 162.357 116.503 165.959 122.743C169.562 128.983 173.352 131.112 177.11 128.942C179.723 127.434 180.737 124.948 181.154 119.8L193.779 121.44C192.973 130.908 190.112 136.065 182.978 140.183Z" fill="#D2E7D9"/>
<g opacity="0.3">
<path d="M179.004 101.82L180.252 98.9596C177.584 97.567 174.958 96.5743 172.311 96.1655C172.25 96.2559 172.189 96.3463 172.129 96.4368L179.004 101.82Z" fill="#D2E7D9"/>
<path d="M193.74 121.444L182.661 120C182.916 120.573 183.207 121.142 183.535 121.71C185.915 125.833 188.906 128.404 192.194 129.531C192.992 127.226 193.487 124.561 193.74 121.444Z" fill="#D2E7D9"/>
</g>
<path d="M236.262 75.5317C233.41 74.6695 230.596 74.3943 227.898 75.952C224.522 77.9011 223.356 80.6773 226.136 85.4921L238.549 106.993L224.734 114.969L201.944 75.4954L215.759 67.5194L217.405 70.3696C218.476 66.7442 220.351 63.7614 223.882 61.7226C226.792 60.0426 229.189 59.5624 231.367 59.6151L236.262 75.5317Z" fill="#D2E7D9"/>
<path opacity="0.3" d="M228.048 65.1847L234.508 75.0693C235.09 75.195 235.679 75.3346 236.27 75.5099L231.382 59.6071C230.29 59.5739 229.132 59.6889 227.89 60.0182C227.081 61.8136 227.007 63.6092 228.048 65.1847Z" fill="#D2E7D9"/>
<path opacity="0.3" d="M204.986 80.7312L224.749 114.961L226.854 113.746L212.052 88.1081C210.087 84.7045 207.739 82.2042 204.986 80.7312Z" fill="#D2E7D9"/>
<path d="M237.582 40.7338C239.579 44.1927 238.334 48.6569 234.802 50.6958C231.271 52.7347 226.782 51.5816 224.785 48.1226C222.788 44.6637 224.034 40.1994 227.565 38.1606C231.096 36.1217 235.585 37.2748 237.582 40.7338Z" fill="#D2E7D9"/>
</g>
<g opacity="0.45">
<path fill-rule="evenodd" clip-rule="evenodd" d="M19.7409 323.401C20.433 323.002 20.6577 322.282 20.3449 321.577L11.5506 303.539L12.578 302.448C13.8197 301.141 13.7469 299.873 12.8633 298.114L5.18504 282.956C0.8024 274.288 -22.8138 287.96 -17.529 296.07L-8.22635 310.29C-7.13695 311.949 -6.08337 312.632 -4.33043 312.21L-2.8717 311.866L8.35221 328.501C8.82838 329.13 9.54216 329.29 10.2343 328.89L19.7409 323.401Z" fill="#D2E7D9"/>
<path d="M42.0606 309.538L29.1278 287.137C26.1722 282.018 23.6317 281.696 20.7924 283.335C17.8684 285.023 16.8855 287.398 19.7453 292.351L32.7659 314.904L18.951 322.88L-3.83907 283.406L9.97581 275.43L11.4936 278.059C12.9357 274.718 14.8643 271.501 19.6246 268.753C28.4532 263.656 36.0157 267 42.0068 277.377L55.9381 301.507L42.0526 309.524L42.0606 309.538Z" fill="#D2E7D9"/>
<path opacity="0.3" d="M18.9502 322.88L20.4758 322C20.4543 321.864 20.4168 321.702 20.359 321.569L11.5647 303.531L12.5921 302.44C13.8338 301.133 13.761 299.865 12.8774 298.106L5.19917 282.948C4.45316 281.46 3.13052 280.637 1.49965 280.324L-3.83984 283.407L18.9502 322.88Z" fill="#D2E7D9"/>
</g>
<g opacity="0.45">
<path fill-rule="evenodd" clip-rule="evenodd" d="M176.469 232.914C177.162 232.514 177.386 231.794 177.073 231.089L168.279 213.052L169.306 211.96C170.548 210.653 170.475 209.385 169.592 207.627L161.914 192.468C157.531 183.801 133.915 197.472 139.2 205.582L148.502 219.803C149.592 221.461 150.645 222.144 152.398 221.723L153.857 221.378L165.081 238.013C165.557 238.642 166.271 238.802 166.963 238.403L176.469 232.914Z" fill="#D2E7D9"/>
<path d="M198.789 219.05L185.856 196.65C182.901 191.531 180.36 191.208 177.521 192.847C174.597 194.535 173.614 196.911 176.474 201.864L189.494 224.416L175.68 232.392L152.889 192.919L166.704 184.943L168.222 187.572C169.664 184.23 171.593 181.014 176.353 178.265C185.182 173.168 192.744 176.513 198.735 186.89L212.667 211.019L198.781 219.036L198.789 219.05Z" fill="#D2E7D9"/>
<path opacity="0.3" d="M175.679 232.393L177.204 231.512C177.183 231.377 177.145 231.214 177.088 231.082L168.293 213.044L169.321 211.953C170.562 210.645 170.49 209.378 169.606 207.619L161.928 192.46C161.182 190.972 159.859 190.15 158.228 189.837L152.889 192.919L175.679 232.393Z" fill="#D2E7D9"/>
<path d="M124.983 261.662L123.465 259.033C121.978 262.493 119.318 266.04 115.631 268.169C107.805 272.687 99.8468 270.972 94.7184 262.09C89.8137 253.595 93.2868 245.778 101.805 240.861C105.491 238.732 108.341 237.991 111.125 237.693L109.999 235.742C108.002 232.283 105.386 232.189 101.629 234.358C97.4898 236.747 94.7712 239.313 92.0726 243.675L83.3022 236.803C86.8759 231.641 91.5855 227.206 98.5636 223.177C109.85 216.661 117.937 219.316 123.233 228.489L138.035 254.127L124.983 261.662ZM115.693 245.571C113.762 245.782 111.74 246.359 109.141 247.859C106.302 249.499 105.718 251.847 107.275 254.545C108.705 257.021 111.051 258.084 114.046 256.355C116.348 255.025 118.132 252.797 118.824 250.995L115.693 245.571Z" fill="#D2E7D9"/>
<path d="M94.1579 280.565C82.3347 287.391 71.0142 284.094 63.3377 270.798C56.3481 258.692 57.8313 246.711 70.728 239.265C78.3276 234.878 84.7036 235.809 91.4462 239.332L86.0075 251.899C82.0893 249.549 79.8312 248.639 76.8366 250.368C73.3052 252.407 73.5365 256.885 77.1391 263.125C80.7418 269.365 84.5321 271.493 88.2895 269.324C90.9027 267.815 91.9163 265.33 92.3341 260.182L104.958 261.822C104.153 271.289 101.291 276.446 94.1579 280.565Z" fill="#D2E7D9"/>
<g opacity="0.3">
<path d="M90.1833 242.203L91.4321 239.342C88.7635 237.949 86.1374 236.956 83.4906 236.548C83.4298 236.638 83.369 236.728 83.3082 236.819L90.1833 242.203Z" fill="#D2E7D9"/>
<path d="M104.92 261.826L93.8406 260.383C94.0956 260.955 94.3869 261.525 94.7144 262.092C97.0949 266.215 100.086 268.786 103.374 269.914C104.171 267.608 104.666 264.943 104.92 261.826Z" fill="#D2E7D9"/>
</g>
<path d="M147.442 215.914C144.59 215.051 141.775 214.776 139.077 216.334C135.701 218.283 134.535 221.059 137.315 225.874L149.729 247.375L135.914 255.351L113.124 215.877L126.939 207.901L128.584 210.751C129.655 207.126 131.531 204.143 135.062 202.104C137.972 200.424 140.369 199.944 142.547 199.997L147.442 215.914Z" fill="#D2E7D9"/>
<path opacity="0.3" d="M139.228 205.567L145.688 215.451C146.269 215.577 146.858 215.716 147.449 215.892L142.562 199.989C141.469 199.956 140.311 200.071 139.07 200.4C138.261 202.195 138.186 203.991 139.228 205.567Z" fill="#D2E7D9"/>
<path opacity="0.3" d="M116.166 221.113L135.929 255.343L138.033 254.128L123.231 228.49C121.266 225.086 118.919 222.586 116.166 221.113Z" fill="#D2E7D9"/>
<path d="M148.762 181.115C150.759 184.574 149.513 189.039 145.982 191.077C142.45 193.116 137.961 191.963 135.964 188.504C133.967 185.045 135.213 180.581 138.745 178.542C142.276 176.503 146.765 177.656 148.762 181.115Z" fill="#D2E7D9"/>
</g>
<g opacity="0.45">
<path d="M281.712 171.175L280.194 168.546C278.707 172.005 276.046 175.552 272.359 177.681C264.534 182.199 256.575 180.485 251.447 171.602C246.542 163.107 250.015 155.291 258.533 150.373C262.22 148.245 265.069 147.503 267.854 147.205L266.728 145.254C264.731 141.796 262.115 141.701 258.357 143.87C254.218 146.26 251.5 148.826 248.801 153.188L240.031 146.316C243.604 141.153 248.314 136.718 255.292 132.69C266.579 126.173 274.666 128.828 279.962 138.001L294.764 163.639L281.712 171.175ZM272.421 155.084C270.49 155.295 268.469 155.871 265.87 157.372C263.031 159.011 262.446 161.359 264.004 164.057C265.434 166.534 267.78 167.596 270.774 165.867C273.077 164.538 274.86 162.309 275.553 160.507L272.421 155.084Z" fill="#D2E7D9"/>
<path d="M250.886 190.078C239.063 196.904 227.743 193.607 220.066 180.311C213.077 168.204 214.56 156.224 227.457 148.778C235.056 144.39 241.432 145.321 248.175 148.844L242.736 161.411C238.818 159.061 236.56 158.151 233.565 159.88C230.034 161.919 230.265 166.398 233.868 172.638C237.47 178.878 241.261 181.006 245.018 178.837C247.631 177.328 248.645 174.843 249.063 169.694L261.687 171.334C260.881 180.802 258.02 185.959 250.886 190.078Z" fill="#D2E7D9"/>
<g opacity="0.3">
<path d="M246.912 151.715L248.161 148.854C245.492 147.462 242.866 146.469 240.219 146.06C240.158 146.15 240.098 146.241 240.037 146.331L246.912 151.715Z" fill="#D2E7D9"/>
<path d="M261.648 171.339L250.569 169.895C250.824 170.467 251.115 171.037 251.443 171.604C253.823 175.727 256.815 178.299 260.102 179.426C260.9 177.121 261.395 174.455 261.648 171.339Z" fill="#D2E7D9"/>
</g>
<path d="M304.17 125.426C301.318 124.564 298.504 124.289 295.806 125.846C292.43 127.795 291.264 130.572 294.044 135.386L306.457 156.887L292.642 164.863L269.852 125.39L283.667 117.414L285.313 120.264C286.384 116.639 288.259 113.656 291.79 111.617C294.7 109.937 297.098 109.457 299.275 109.509L304.17 125.426Z" fill="#D2E7D9"/>
<path opacity="0.3" d="M272.895 130.625L292.657 164.855L294.762 163.64L279.96 138.002C277.995 134.599 275.647 132.099 272.895 130.625Z" fill="#D2E7D9"/>
</g>
<g opacity="0.45">
<path fill-rule="evenodd" clip-rule="evenodd" d="M114.573 357.752C115.265 357.352 115.49 356.632 115.177 355.928L106.383 337.89L107.41 336.799C108.652 335.491 108.579 334.224 107.695 332.465L100.017 317.306C95.6344 308.639 72.0182 322.31 77.303 330.42L86.6057 344.641C87.6951 346.299 88.7487 346.982 90.5016 346.561L91.9603 346.217L103.184 362.851C103.66 363.481 104.374 363.64 105.066 363.241L114.573 357.752Z" fill="#D2E7D9"/>
<path d="M136.893 343.888L123.96 321.488C121.004 316.369 118.464 316.046 115.624 317.685C112.7 319.374 111.718 321.749 114.577 326.702L127.598 349.254L113.783 357.23L90.993 317.757L104.808 309.781L106.326 312.41C107.768 309.068 109.696 305.852 114.457 303.103C123.285 298.006 130.848 301.351 136.839 311.728L150.77 335.858L136.885 343.874L136.893 343.888Z" fill="#D2E7D9"/>
<path opacity="0.3" d="M113.782 357.231L115.308 356.35C115.286 356.215 115.249 356.052 115.191 355.92L106.397 337.882L107.424 336.791C108.666 335.484 108.593 334.216 107.709 332.457L100.031 317.298C99.2852 315.811 97.9625 314.988 96.3317 314.675L90.9922 317.758L113.782 357.231Z" fill="#D2E7D9"/>
<path d="M85.5454 340.752C82.6933 339.889 79.8788 339.614 77.1808 341.172C73.8047 343.121 72.6389 345.897 75.4188 350.712L87.8323 372.213L74.0174 380.189L51.2273 340.715L65.0422 332.739L66.6878 335.59C67.7588 331.964 69.634 328.981 73.1655 326.943C76.0753 325.263 78.4726 324.782 80.6501 324.835L85.5454 340.752Z" fill="#D2E7D9"/>
<path opacity="0.3" d="M77.3314 330.405L83.7917 340.289C84.3728 340.415 84.9618 340.555 85.5528 340.73L80.6655 324.827C79.5728 324.794 78.4149 324.909 77.1736 325.238C76.3645 327.034 76.2899 328.829 77.3314 330.405Z" fill="#D2E7D9"/>
<path d="M86.8657 305.953C88.8627 309.412 87.6168 313.877 84.0854 315.916C80.554 317.954 76.0649 316.801 74.0678 313.342C72.0708 309.883 73.3167 305.419 76.8481 303.38C80.3796 301.341 84.8686 302.495 86.8657 305.953Z" fill="#D2E7D9"/>
</g>
<g opacity="0.45">
<path fill-rule="evenodd" clip-rule="evenodd" d="M271.301 267.265C271.994 266.865 272.218 266.145 271.905 265.44L263.111 247.402L264.139 246.311C265.38 245.004 265.307 243.736 264.424 241.977L256.746 226.819C252.363 218.151 228.747 231.823 234.032 239.933L243.334 254.153C244.424 255.812 245.477 256.495 247.23 256.073L248.689 255.729L259.913 272.364C260.389 272.993 261.103 273.153 261.795 272.753L271.301 267.265Z" fill="#D2E7D9"/>
<path d="M293.621 253.401L280.688 231C277.733 225.881 275.192 225.559 272.353 227.198C269.429 228.886 268.446 231.261 271.306 236.215L284.326 258.767L270.512 266.743L247.721 227.269L261.536 219.293L263.054 221.922C264.496 218.581 266.425 215.364 271.185 212.616C280.014 207.519 287.576 210.863 293.567 221.24L307.499 245.37L293.613 253.387L293.621 253.401Z" fill="#D2E7D9"/>
<path opacity="0.3" d="M270.511 266.744L272.036 265.863C272.015 265.728 271.977 265.565 271.92 265.432L263.125 247.395L264.153 246.303C265.394 244.996 265.322 243.728 264.438 241.969L256.76 226.811C256.014 225.323 254.691 224.5 253.06 224.187L247.721 227.27L270.511 266.744Z" fill="#D2E7D9"/>
<path d="M219.815 296.013L218.297 293.384C216.81 296.844 214.15 300.391 210.463 302.519C202.637 307.037 194.679 305.323 189.55 296.44C184.646 287.945 188.119 280.129 196.637 275.211C200.323 273.083 203.173 272.342 205.958 272.043L204.831 270.093C202.834 266.634 200.218 266.539 196.461 268.708C192.322 271.098 189.603 273.664 186.905 278.026L178.134 271.154C181.708 265.991 186.418 261.557 193.396 257.528C204.682 251.012 212.769 253.666 218.065 262.839L232.867 288.477L219.815 296.013ZM210.525 279.922C208.594 280.133 206.572 280.709 203.973 282.21C201.134 283.849 200.55 286.197 202.107 288.895C203.537 291.372 205.883 292.434 208.878 290.705C211.18 289.376 212.964 287.147 213.656 285.345L210.525 279.922Z" fill="#D2E7D9"/>
<path d="M188.99 314.916C177.167 321.742 165.846 318.445 158.17 305.149C151.18 293.042 152.663 281.062 165.56 273.616C173.16 269.229 179.536 270.159 186.278 273.682L180.839 286.249C176.921 283.9 174.663 282.99 171.669 284.718C168.137 286.757 168.369 291.236 171.971 297.476C175.574 303.716 179.364 305.844 183.122 303.675C185.735 302.166 186.748 299.681 187.166 294.532L199.79 296.173C198.985 305.64 196.123 310.797 188.99 314.916Z" fill="#D2E7D9"/>
<g opacity="0.3">
<path d="M185.015 276.553L186.264 273.692C183.596 272.3 180.969 271.307 178.323 270.898C178.262 270.989 178.201 271.079 178.14 271.169L185.015 276.553Z" fill="#D2E7D9"/>
<path d="M199.752 296.177L188.673 294.733C188.928 295.305 189.219 295.875 189.546 296.442C191.927 300.565 194.918 303.137 198.206 304.264C199.003 301.959 199.498 299.293 199.752 296.177Z" fill="#D2E7D9"/>
</g>
<path d="M242.274 250.264C239.422 249.402 236.607 249.127 233.909 250.684C230.533 252.634 229.367 255.41 232.147 260.225L244.561 281.725L230.746 289.701L207.956 250.228L221.771 242.252L223.416 245.102C224.487 241.477 226.363 238.494 229.894 236.455C232.804 234.775 235.201 234.295 237.379 234.347L242.274 250.264Z" fill="#D2E7D9"/>
<path opacity="0.3" d="M234.06 239.917L240.52 249.802C241.101 249.928 241.69 250.067 242.281 250.243L237.394 234.34C236.301 234.307 235.143 234.422 233.902 234.751C233.093 236.546 233.018 238.342 234.06 239.917Z" fill="#D2E7D9"/>
<path opacity="0.3" d="M210.998 255.464L230.761 289.693L232.865 288.478L218.063 262.841C216.098 259.437 213.751 256.937 210.998 255.464Z" fill="#D2E7D9"/>
<path d="M243.594 215.466C245.591 218.925 244.345 223.389 240.814 225.428C237.282 227.467 232.793 226.314 230.796 222.855C228.799 219.396 230.045 214.932 233.577 212.893C237.108 210.854 241.597 212.007 243.594 215.466Z" fill="#D2E7D9"/>
</g>
<g opacity="0.45">
<path fill-rule="evenodd" clip-rule="evenodd" d="M310.76 333.32C311.453 332.92 311.677 332.2 311.364 331.495L302.57 313.458L303.597 312.366C304.839 311.059 304.766 309.791 303.883 308.033L296.205 292.874C291.822 284.207 268.206 297.878 273.491 305.988L282.793 320.209C283.883 321.867 284.936 322.55 286.689 322.129L288.148 321.784L299.372 338.419C299.848 339.048 300.562 339.208 301.254 338.809L310.76 333.32Z" fill="#D2E7D9"/>
<path d="M259.274 362.068L257.756 359.439C256.269 362.899 253.609 366.446 249.922 368.575C242.096 373.093 234.138 371.378 229.009 362.496C224.105 354.001 227.578 346.184 236.096 341.267C239.782 339.138 242.632 338.397 245.416 338.099L244.29 336.148C242.293 332.689 239.677 332.595 235.92 334.764C231.781 337.153 229.062 339.719 226.364 344.081L217.593 337.209C221.167 332.047 225.877 327.612 232.855 323.583C244.141 317.067 252.228 319.722 257.524 328.895L272.326 354.533L259.274 362.068ZM249.984 345.977C248.053 346.188 246.031 346.765 243.432 348.265C240.593 349.905 240.009 352.253 241.566 354.951C242.996 357.427 245.342 358.49 248.337 356.761C250.639 355.431 252.423 353.203 253.115 351.401L249.984 345.977Z" fill="#D2E7D9"/>
<path d="M228.449 380.971C216.626 387.797 205.305 384.5 197.629 371.204C190.639 359.098 192.122 347.118 205.019 339.672C212.619 335.284 218.995 336.215 225.737 339.738L220.298 352.305C216.38 349.955 214.122 349.045 211.128 350.774C207.596 352.813 207.827 357.291 211.43 363.531C215.033 369.771 218.823 371.9 222.58 369.73C225.194 368.221 226.207 365.736 226.625 360.588L239.249 362.228C238.444 371.696 235.582 376.853 228.449 380.971Z" fill="#D2E7D9"/>
<g opacity="0.3">
<path d="M224.474 342.609L225.723 339.748C223.055 338.355 220.428 337.362 217.782 336.954C217.721 337.044 217.66 337.134 217.599 337.225L224.474 342.609Z" fill="#D2E7D9"/>
</g>
<path d="M281.733 316.32C278.881 315.457 276.066 315.182 273.368 316.74C269.992 318.689 268.826 321.465 271.606 326.28L284.02 347.781L270.205 355.757L247.415 316.283L261.23 308.307L262.875 311.157C263.946 307.532 265.822 304.549 269.353 302.51C272.263 300.83 274.66 300.35 276.838 300.403L281.733 316.32Z" fill="#D2E7D9"/>
<path opacity="0.3" d="M273.519 305.973L279.979 315.857C280.56 315.983 281.149 316.122 281.74 316.298L276.853 300.395C275.76 300.362 274.602 300.477 273.361 300.806C272.552 302.601 272.477 304.397 273.519 305.973Z" fill="#D2E7D9"/>
<path opacity="0.3" d="M250.457 321.519L270.22 355.749L272.324 354.534L257.522 328.896C255.557 325.492 253.21 322.992 250.457 321.519Z" fill="#D2E7D9"/>
<path d="M283.053 281.522C285.05 284.981 283.804 289.445 280.273 291.484C276.741 293.523 272.252 292.369 270.255 288.91C268.258 285.451 269.504 280.987 273.036 278.948C276.567 276.91 281.056 278.063 283.053 281.522Z" fill="#D2E7D9"/>
</g>
<rect x="11.1035" y="10.5476" width="274.238" height="325.311" fill="url(#paint0_linear_1404_52101)" fill-opacity="0.45"/>
</g>
<circle cx="150.552" cy="263.97" r="93.7505" fill="white" fill-opacity="0.35" stroke="#2AA856" stroke-width="46.2552"/>
<path fill-rule="evenodd" clip-rule="evenodd" d="M162.628 373.464C164.426 373.464 165.673 372.233 165.856 370.387L169.01 322.184L172.238 321.146C176.126 319.915 177.41 317.183 177.666 312.452L179.757 271.597C180.967 248.246 119.605 248.323 120.778 271.597L122.906 312.452C123.162 317.222 124.446 319.915 128.334 321.146L131.562 322.184L134.716 370.387C134.936 372.272 136.147 373.464 137.944 373.464H162.628Z" fill="#2AA856"/>
<path d="M168.102 231.856C168.102 241.291 160.546 248.952 151.241 248.952C141.936 248.952 134.38 241.291 134.38 231.856C134.38 222.421 141.936 214.759 151.241 214.759C160.546 214.759 168.102 222.421 168.102 231.856Z" fill="#2AA856"/>
<path d="M56.352 290.528C55.7303 290.785 55.3147 291.208 55.1053 291.797C54.8959 292.386 54.9158 293.094 55.1652 293.92C55.3346 294.481 55.5572 294.931 55.8327 295.27C56.103 295.61 56.4071 295.842 56.7448 295.966C57.081 296.084 57.4239 296.09 57.7735 295.985C58.068 295.907 58.3038 295.77 58.481 295.572C58.6566 295.368 58.7879 295.124 58.8749 294.837C58.9566 294.553 59.0085 294.237 59.0307 293.889C59.0477 293.543 59.0423 293.18 59.0146 292.801L58.923 291.234C58.8678 290.476 58.883 289.761 58.9688 289.088C59.0546 288.415 59.2253 287.803 59.4809 287.252C59.7365 286.7 60.0905 286.227 60.5429 285.83C60.9938 285.428 61.5574 285.122 62.2338 284.912C63.2311 284.617 64.1712 284.611 65.054 284.893C65.9299 285.172 66.7114 285.722 67.3985 286.544C68.0787 287.361 68.6186 288.432 69.0182 289.757C69.4146 291.07 69.5586 292.275 69.4502 293.371C69.3402 294.462 68.9729 295.399 68.3483 296.183C67.7168 296.963 66.8198 297.543 65.6572 297.922L64.6526 294.593C65.187 294.392 65.5953 294.098 65.8777 293.712C66.1531 293.323 66.3132 292.867 66.3579 292.345C66.3958 291.819 66.3252 291.26 66.1461 290.667C65.9703 290.084 65.7329 289.604 65.4339 289.226C65.1334 288.843 64.7962 288.577 64.4223 288.43C64.0485 288.283 63.6656 288.268 63.2736 288.387C62.9082 288.497 62.6337 288.698 62.4503 288.991C62.2653 289.278 62.1477 289.654 62.0976 290.12C62.0459 290.581 62.0381 291.129 62.0741 291.765L62.1639 293.671C62.2442 295.144 62.0493 296.385 61.5794 297.393C61.1094 298.402 60.2724 299.085 59.0685 299.443C58.0849 299.745 57.145 299.743 56.2489 299.435C55.3513 299.123 54.5552 298.562 53.8607 297.755C53.1662 296.947 52.64 295.95 52.2819 294.764C51.9175 293.556 51.8059 292.44 51.9473 291.415C52.0871 290.384 52.4492 289.506 53.0336 288.781C53.618 288.056 54.3924 287.539 55.3569 287.23L56.352 290.528Z" fill="white"/>
<path d="M49.0742 278.801L65.8854 276.3L66.4142 279.854L49.603 282.355L49.0742 278.801Z" fill="white"/>
<path d="M53.7799 260.824C53.3747 260.936 53.0159 261.095 52.7037 261.301C52.3859 261.508 52.1173 261.762 51.8979 262.064C51.6731 262.36 51.5003 262.701 51.3796 263.087C51.2589 263.467 51.1959 263.889 51.1904 264.354C51.1801 265.223 51.3869 265.989 51.8107 266.652C52.2345 267.31 52.8564 267.826 53.6764 268.201C54.4909 268.576 55.4901 268.77 56.674 268.784C57.8579 268.798 58.8669 268.63 59.7009 268.281C60.535 267.931 61.1744 267.429 61.6192 266.776C62.0585 266.123 62.2834 265.348 62.294 264.452C62.3036 263.639 62.1679 262.943 61.887 262.364C61.6007 261.779 61.1937 261.332 60.6662 261.021C60.1388 260.705 59.5127 260.543 58.788 260.535L58.9044 259.806L58.8528 264.187L56.1475 264.155L56.2313 257.044L58.3723 257.069C59.866 257.086 61.1458 257.417 62.2116 258.06C63.2719 258.703 64.086 259.582 64.6538 260.695C65.2161 261.808 65.4889 263.079 65.4721 264.506C65.4533 266.099 65.0855 267.495 64.3687 268.692C63.6464 269.89 62.6312 270.819 61.3232 271.478C60.0097 272.132 58.4567 272.449 56.6642 272.428C55.2867 272.411 54.0609 272.198 52.9868 271.787C51.9072 271.37 50.9955 270.795 50.2517 270.061C49.5078 269.328 48.9452 268.477 48.5637 267.51C48.1823 266.543 47.9982 265.498 48.0114 264.375C48.0228 263.412 48.1744 262.518 48.4663 261.691C48.7527 260.865 49.1542 260.133 49.6707 259.498C50.1873 258.856 50.7993 258.335 51.5067 257.934C52.2086 257.533 52.9807 257.279 53.8229 257.173L53.7799 260.824Z" fill="white"/>
<path d="M52.5893 235.644L69.1231 239.582L68.404 242.601L56.2847 247.316L56.2558 247.437L66.6621 249.915L65.8296 253.411L49.2958 249.473L50.0264 246.406L62.1242 241.745L62.1588 241.6L51.7606 239.124L52.5893 235.644Z" fill="white"/>
<path d="M70.5952 235.725L55.1853 228.555L60.0165 218.171L62.7027 219.421L59.3874 226.546L63.0593 228.255L66.1261 221.664L68.8123 222.913L65.7455 229.505L69.4249 231.217L72.7543 224.061L75.4405 225.311L70.5952 235.725Z" fill="white"/>
<path d="M77.4241 221.906L63.591 212.031L70.2451 202.709L72.6564 204.431L68.0901 210.827L71.3863 213.18L75.6102 207.263L78.0216 208.985L73.7977 214.902L77.1006 217.26L81.6861 210.836L84.0975 212.558L77.4241 221.906Z" fill="white"/>
<path d="M112.745 174.869C112.414 174.283 111.944 173.922 111.334 173.786C110.724 173.649 110.024 173.755 109.234 174.103C108.697 174.339 108.277 174.614 107.974 174.929C107.669 175.239 107.476 175.568 107.394 175.919C107.318 176.267 107.353 176.608 107.5 176.942C107.613 177.225 107.778 177.442 107.996 177.594C108.219 177.744 108.478 177.845 108.772 177.896C109.065 177.943 109.385 177.956 109.733 177.936C110.079 177.911 110.438 177.862 110.81 177.788L112.355 177.507C113.1 177.36 113.813 177.289 114.491 177.292C115.17 177.296 115.798 177.391 116.376 177.578C116.954 177.765 117.467 178.059 117.916 178.46C118.369 178.859 118.741 179.381 119.031 180.027C119.445 180.981 119.566 181.914 119.392 182.824C119.222 183.728 118.77 184.57 118.038 185.352C117.309 186.126 116.312 186.792 115.046 187.349C113.79 187.902 112.611 188.191 111.51 188.216C110.414 188.239 109.439 187.988 108.586 187.463C107.735 186.931 107.05 186.111 106.532 185.003L109.715 183.602C109.98 184.108 110.321 184.477 110.738 184.711C111.158 184.937 111.63 185.041 112.154 185.022C112.68 184.996 113.227 184.858 113.794 184.608C114.351 184.363 114.799 184.069 115.138 183.727C115.482 183.382 115.704 183.015 115.805 182.626C115.906 182.237 115.874 181.855 115.709 181.48C115.555 181.131 115.322 180.883 115.01 180.736C114.702 180.588 114.314 180.517 113.846 180.523C113.382 180.528 112.837 180.587 112.21 180.699L110.329 181.02C108.877 181.278 107.622 181.235 106.563 180.891C105.505 180.546 104.725 179.798 104.225 178.647C103.805 177.707 103.693 176.774 103.89 175.847C104.092 174.918 104.551 174.06 105.269 173.273C105.986 172.486 106.912 171.842 108.046 171.343C109.201 170.835 110.295 170.589 111.33 170.605C112.37 170.619 113.285 170.872 114.076 171.364C114.867 171.856 115.474 172.562 115.897 173.482L112.745 174.869Z" fill="white"/>
<path d="M123.502 166.225L128.023 182.609L124.559 183.565L120.038 167.181L123.502 166.225Z" fill="white"/>
<path d="M141.916 168.716C141.756 168.327 141.555 167.99 141.312 167.705C141.069 167.415 140.784 167.179 140.458 166.998C140.136 166.811 139.777 166.681 139.379 166.607C138.987 166.534 138.56 166.522 138.098 166.573C137.235 166.668 136.499 166.967 135.892 167.468C135.291 167.968 134.853 168.648 134.581 169.507C134.308 170.361 134.236 171.377 134.365 172.554C134.495 173.73 134.784 174.712 135.232 175.497C135.681 176.283 136.256 176.857 136.958 177.219C137.66 177.576 138.456 177.705 139.347 177.607C140.156 177.518 140.83 177.299 141.371 176.95C141.916 176.595 142.311 176.136 142.555 175.575C142.805 175.013 142.89 174.372 142.811 173.652L143.548 173.679L139.193 174.159L138.897 171.47L145.966 170.691L146.2 172.819C146.364 174.304 146.191 175.614 145.682 176.75C145.172 177.881 144.399 178.795 143.362 179.494C142.326 180.187 141.098 180.612 139.679 180.768C138.095 180.943 136.665 180.747 135.39 180.18C134.113 179.609 133.068 178.713 132.255 177.495C131.446 176.27 130.944 174.767 130.748 172.986C130.597 171.616 130.66 170.374 130.938 169.258C131.221 168.135 131.681 167.161 132.319 166.333C132.957 165.506 133.733 164.845 134.647 164.349C135.561 163.853 136.576 163.543 137.692 163.42C138.649 163.315 139.555 163.357 140.411 163.546C141.266 163.731 142.041 164.04 142.735 164.476C143.434 164.911 144.025 165.455 144.509 166.109C144.993 166.757 145.338 167.493 145.546 168.316L141.916 168.716Z" fill="white"/>
<path d="M166.766 164.48L164.862 181.37L161.778 181.022L155.629 169.564L155.505 169.55L154.307 180.18L150.736 179.777L152.64 162.888L155.774 163.241L161.866 174.685L162.015 174.701L163.212 164.08L166.766 164.48Z" fill="white"/>
<path d="M168.871 182.365L174.12 166.199L185.012 169.736L184.097 172.554L176.622 170.127L175.372 173.979L182.286 176.224L181.371 179.042L174.457 176.797L173.203 180.657L180.71 183.094L179.795 185.912L168.871 182.365Z" fill="white"/>
<path d="M183.415 187.467L191.54 172.539L201.599 178.014L200.183 180.616L193.28 176.859L191.344 180.416L197.729 183.892L196.313 186.494L189.928 183.019L187.988 186.583L194.92 190.356L193.503 192.958L183.415 187.467Z" fill="white"/>
<path d="M234.069 214.87C234.596 214.452 234.879 213.931 234.918 213.307C234.957 212.683 234.743 212.008 234.275 211.282C233.958 210.789 233.62 210.418 233.262 210.168C232.908 209.915 232.552 209.776 232.193 209.751C231.838 209.73 231.506 209.818 231.199 210.016C230.938 210.171 230.749 210.368 230.633 210.608C230.52 210.851 230.461 211.123 230.456 211.422C230.456 211.718 230.494 212.036 230.568 212.377C230.647 212.714 230.752 213.061 230.883 213.418L231.403 214.899C231.664 215.612 231.847 216.304 231.95 216.975C232.053 217.646 232.057 218.281 231.963 218.881C231.869 219.481 231.659 220.034 231.334 220.54C231.011 221.051 230.553 221.5 229.961 221.888C229.083 222.447 228.181 222.712 227.255 222.683C226.336 222.656 225.433 222.343 224.547 221.742C223.668 221.144 222.854 220.263 222.105 219.1C221.362 217.946 220.892 216.828 220.694 215.744C220.499 214.665 220.594 213.663 220.979 212.738C221.371 211.814 222.074 211.009 223.087 210.324L224.969 213.248C224.511 213.589 224.2 213.984 224.034 214.432C223.877 214.882 223.848 215.365 223.949 215.879C224.058 216.395 224.28 216.913 224.615 217.434C224.945 217.946 225.305 218.342 225.697 218.623C226.091 218.909 226.488 219.071 226.888 219.109C227.288 219.148 227.66 219.056 228.004 218.835C228.325 218.628 228.534 218.359 228.63 218.027C228.728 217.7 228.738 217.306 228.658 216.844C228.58 216.387 228.437 215.858 228.227 215.256L227.616 213.449C227.133 212.055 226.979 210.809 227.153 209.71C227.327 208.611 227.943 207.723 229.002 207.048C229.864 206.486 230.768 206.23 231.715 206.279C232.664 206.332 233.583 206.651 234.473 207.236C235.363 207.821 236.144 208.635 236.815 209.677C237.498 210.737 237.912 211.78 238.059 212.804C238.208 213.833 238.102 214.777 237.74 215.635C237.378 216.493 236.776 217.204 235.933 217.766L234.069 214.87Z" fill="white"/>
<path d="M244.294 224.139L228.821 231.174L227.334 227.902L242.806 220.868L244.294 224.139Z" fill="white"/>
<path d="M244.722 242.716C245.08 242.498 245.382 242.246 245.625 241.961C245.873 241.675 246.062 241.357 246.189 241.006C246.324 240.66 246.396 240.284 246.406 239.88C246.417 239.481 246.361 239.058 246.239 238.61C246.009 237.772 245.6 237.092 245.01 236.571C244.421 236.056 243.681 235.73 242.789 235.596C241.903 235.46 240.889 235.548 239.747 235.861C238.605 236.174 237.681 236.613 236.976 237.179C236.27 237.745 235.794 238.403 235.546 239.154C235.304 239.903 235.301 240.709 235.538 241.574C235.752 242.358 236.075 242.99 236.504 243.469C236.94 243.952 237.455 244.27 238.047 244.423C238.641 244.582 239.288 244.565 239.987 244.374L240.076 245.107L238.919 240.88L241.528 240.166L243.406 247.026L241.341 247.591C239.9 247.986 238.579 248.02 237.377 247.696C236.181 247.369 235.156 246.749 234.304 245.835C233.457 244.92 232.845 243.774 232.468 242.397C232.047 240.86 232.016 239.417 232.375 238.069C232.74 236.718 233.46 235.546 234.536 234.552C235.618 233.561 237.024 232.829 238.753 232.356C240.082 231.992 241.319 231.86 242.465 231.959C243.617 232.062 244.652 232.364 245.569 232.864C246.486 233.365 247.262 234.027 247.895 234.852C248.528 235.677 248.993 236.631 249.289 237.714C249.543 238.643 249.644 239.544 249.591 240.419C249.543 241.293 249.359 242.106 249.037 242.86C248.717 243.618 248.272 244.288 247.703 244.868C247.139 245.447 246.466 245.904 245.686 246.238L244.722 242.716Z" fill="white"/>
<path d="M252.801 266.594L235.822 267.363L235.681 264.262L246.034 256.391L246.028 256.267L235.342 256.751L235.179 253.161L252.158 252.393L252.301 255.543L241.954 263.355L241.961 263.504L252.639 263.021L252.801 266.594Z" fill="white"/>
<path d="M235.468 271.476L252.257 274.125L250.472 285.438L247.546 284.976L248.77 277.213L244.77 276.582L243.637 283.763L240.711 283.301L241.843 276.12L237.835 275.488L236.605 283.284L233.678 282.822L235.468 271.476Z" fill="white"/>
<path d="M232.71 286.642L248.728 292.326L244.898 303.119L242.106 302.128L244.734 294.722L240.917 293.367L238.486 300.219L235.694 299.228L238.125 292.377L234.301 291.02L231.661 298.458L228.869 297.467L232.71 286.642Z" fill="white"/>
<circle cx="89.9077" cy="193.647" r="4.09718" fill="white"/>
<circle cx="213.664" cy="196.512" r="4.09718" fill="white"/>
<circle cx="69.855" cy="315.683" r="4.09718" fill="white"/>
<circle cx="227.416" cy="319.121" r="4.09718" fill="white"/>
<rect x="13.6001" y="344.463" width="269.242" height="120.465" fill="#2AA856" stroke="#2AA856" stroke-width="22.7607"/>
<path d="M86.4649 380.003H77.7747C77.7131 379.284 77.5487 378.632 77.2817 378.047C77.0249 377.461 76.6653 376.958 76.2031 376.537C75.7511 376.105 75.2016 375.776 74.5544 375.55C73.9073 375.314 73.1728 375.196 72.3511 375.196C70.913 375.196 69.6957 375.545 68.6993 376.244C67.7132 376.942 66.9634 377.944 66.4498 379.248C65.9464 380.553 65.6948 382.119 65.6948 383.948C65.6948 385.879 65.9516 387.497 66.4652 388.801C66.989 390.096 67.744 391.072 68.7302 391.729C69.7163 392.376 70.9027 392.7 72.2894 392.7C73.0804 392.7 73.7892 392.602 74.4158 392.407C75.0424 392.202 75.5868 391.909 76.049 391.529C76.5113 391.149 76.8862 390.692 77.1738 390.157C77.4717 389.613 77.672 389.002 77.7747 388.324L86.4649 388.385C86.3622 389.721 85.9873 391.082 85.3401 392.469C84.693 393.845 83.7736 395.119 82.5821 396.29C81.4008 397.451 79.937 398.385 78.1907 399.094C76.4445 399.803 74.4158 400.157 72.1045 400.157C69.2078 400.157 66.609 399.536 64.308 398.293C62.0174 397.05 60.2043 395.222 58.869 392.808C57.5439 390.394 56.8813 387.44 56.8813 383.948C56.8813 380.435 57.5593 377.476 58.9152 375.073C60.2711 372.659 62.0995 370.836 64.4005 369.603C66.7014 368.36 69.2694 367.739 72.1045 367.739C74.0973 367.739 75.9309 368.011 77.6052 368.555C79.2796 369.1 80.7485 369.896 82.012 370.943C83.2754 371.981 84.2924 373.26 85.0628 374.78C85.8332 376.3 86.3006 378.041 86.4649 380.003ZM119.62 383.948C119.62 387.461 118.937 390.424 117.57 392.838C116.204 395.242 114.36 397.065 112.039 398.308C109.717 399.541 107.129 400.157 104.273 400.157C101.397 400.157 98.7981 399.536 96.4766 398.293C94.1654 397.04 92.3267 395.211 90.9605 392.808C89.6046 390.394 88.9267 387.44 88.9267 383.948C88.9267 380.435 89.6046 377.476 90.9605 375.073C92.3267 372.659 94.1654 370.836 96.4766 369.603C98.7981 368.36 101.397 367.739 104.273 367.739C107.129 367.739 109.717 368.36 112.039 369.603C114.36 370.836 116.204 372.659 117.57 375.073C118.937 377.476 119.62 380.435 119.62 383.948ZM110.806 383.948C110.806 382.058 110.555 380.466 110.051 379.171C109.558 377.867 108.824 376.881 107.848 376.213C106.882 375.535 105.691 375.196 104.273 375.196C102.856 375.196 101.659 375.535 100.683 376.213C99.7175 376.881 98.983 377.867 98.4797 379.171C97.9866 380.466 97.7401 382.058 97.7401 383.948C97.7401 385.838 97.9866 387.435 98.4797 388.74C98.983 390.034 99.7175 391.02 100.683 391.698C101.659 392.366 102.856 392.7 104.273 392.7C105.691 392.7 106.882 392.366 107.848 391.698C108.824 391.02 109.558 390.034 110.051 388.74C110.555 387.435 110.806 385.838 110.806 383.948ZM134.423 399.726H122.282V368.17H134.3C137.546 368.17 140.35 368.802 142.713 370.065C145.086 371.318 146.914 373.126 148.198 375.489C149.492 377.841 150.14 380.661 150.14 383.948C150.14 387.235 149.498 390.06 148.214 392.422C146.93 394.775 145.111 396.583 142.759 397.846C140.407 399.099 137.628 399.726 134.423 399.726ZM130.849 392.453H134.115C135.677 392.453 137.007 392.202 138.106 391.698C139.215 391.195 140.058 390.327 140.633 389.094C141.218 387.862 141.511 386.146 141.511 383.948C141.511 381.75 141.213 380.034 140.617 378.802C140.032 377.569 139.169 376.701 138.029 376.198C136.899 375.694 135.512 375.443 133.869 375.443H130.849V392.453ZM152.802 399.726V368.17H175.544V375.073H161.369V380.496H174.373V387.399H161.369V392.823H175.482V399.726H152.802ZM216.403 383.948C216.403 387.461 215.72 390.424 214.354 392.838C212.988 395.242 211.144 397.065 208.822 398.308C206.501 399.541 203.912 400.157 201.057 400.157C198.18 400.157 195.582 399.536 193.26 398.293C190.949 397.04 189.11 395.211 187.744 392.808C186.388 390.394 185.71 387.44 185.71 383.948C185.71 380.435 186.388 377.476 187.744 375.073C189.11 372.659 190.949 370.836 193.26 369.603C195.582 368.36 198.18 367.739 201.057 367.739C203.912 367.739 206.501 368.36 208.822 369.603C211.144 370.836 212.988 372.659 214.354 375.073C215.72 377.476 216.403 380.435 216.403 383.948ZM207.59 383.948C207.59 382.058 207.338 380.466 206.835 379.171C206.342 377.867 205.607 376.881 204.631 376.213C203.666 375.535 202.474 375.196 201.057 375.196C199.639 375.196 198.442 375.535 197.467 376.213C196.501 376.881 195.767 377.867 195.263 379.171C194.77 380.466 194.524 382.058 194.524 383.948C194.524 385.838 194.77 387.435 195.263 388.74C195.767 390.034 196.501 391.02 197.467 391.698C198.442 392.366 199.639 392.7 201.057 392.7C202.474 392.7 203.666 392.366 204.631 391.698C205.607 391.02 206.342 390.034 206.835 388.74C207.338 387.435 207.59 385.838 207.59 383.948ZM219.065 399.726V368.17H241.253V375.073H227.632V380.496H239.897V387.399H227.632V399.726H219.065Z" fill="white"/>
<path d="M71.4649 421.726H62.7747C62.7131 421.007 62.5487 420.355 62.2817 419.769C62.0249 419.184 61.6653 418.68 61.2031 418.259C60.7511 417.828 60.2016 417.499 59.5544 417.273C58.9073 417.037 58.1728 416.919 57.3511 416.919C55.913 416.919 54.6957 417.268 53.6993 417.966C52.7132 418.665 51.9634 419.666 51.4498 420.971C50.9464 422.275 50.6948 423.842 50.6948 425.67C50.6948 427.601 50.9516 429.219 51.4652 430.524C51.989 431.818 52.744 432.794 53.7302 433.451C54.7163 434.099 55.9027 434.422 57.2894 434.422C58.0804 434.422 58.7892 434.325 59.4158 434.129C60.0424 433.924 60.5868 433.631 61.049 433.251C61.5113 432.871 61.8862 432.414 62.1738 431.88C62.4717 431.335 62.672 430.724 62.7747 430.046L71.4649 430.108C71.3622 431.443 70.9873 432.804 70.3401 434.191C69.693 435.567 68.7736 436.841 67.5821 438.012C66.4008 439.173 64.937 440.108 63.1907 440.817C61.4445 441.525 59.4158 441.88 57.1045 441.88C54.2078 441.88 51.609 441.258 49.308 440.015C47.0174 438.772 45.2043 436.944 43.869 434.53C42.5439 432.116 41.8813 429.163 41.8813 425.67C41.8813 422.157 42.5593 419.199 43.9152 416.795C45.2711 414.381 47.0995 412.558 49.4005 411.325C51.7014 410.082 54.2694 409.461 57.1045 409.461C59.0973 409.461 60.9309 409.733 62.6052 410.278C64.2796 410.822 65.7485 411.618 67.012 412.666C68.2754 413.703 69.2924 414.982 70.0628 416.502C70.8332 418.023 71.3006 419.764 71.4649 421.726ZM104.62 425.67C104.62 429.183 103.937 432.147 102.57 434.561C101.204 436.964 99.3603 438.788 97.0388 440.031C94.7174 441.263 92.1288 441.88 89.2732 441.88C86.397 441.88 83.7981 441.258 81.4766 440.015C79.1654 438.762 77.3267 436.934 75.9605 434.53C74.6046 432.116 73.9267 429.163 73.9267 425.67C73.9267 422.157 74.6046 419.199 75.9605 416.795C77.3267 414.381 79.1654 412.558 81.4766 411.325C83.7981 410.082 86.397 409.461 89.2732 409.461C92.1288 409.461 94.7174 410.082 97.0388 411.325C99.3603 412.558 101.204 414.381 102.57 416.795C103.937 419.199 104.62 422.157 104.62 425.67ZM95.8062 425.67C95.8062 423.78 95.5545 422.188 95.0512 420.894C94.5581 419.589 93.8237 418.603 92.8478 417.935C91.8823 417.257 90.6907 416.919 89.2732 416.919C87.8556 416.919 86.6589 417.257 85.6831 417.935C84.7175 418.603 83.983 419.589 83.4797 420.894C82.9866 422.188 82.7401 423.78 82.7401 425.67C82.7401 427.56 82.9866 429.158 83.4797 430.462C83.983 431.757 84.7175 432.743 85.6831 433.421C86.6589 434.088 87.8556 434.422 89.2732 434.422C90.6907 434.422 91.8823 434.088 92.8478 433.421C93.8237 432.743 94.5581 431.757 95.0512 430.462C95.5545 429.158 95.8062 427.56 95.8062 425.67ZM134.585 409.892V441.448H127.436L116.034 424.869H115.849V441.448H107.282V409.892H114.554L125.771 426.41H126.018V409.892H134.585ZM149.477 441.448H137.336V409.892H149.354C152.6 409.892 155.404 410.524 157.767 411.788C160.14 413.041 161.968 414.849 163.252 417.211C164.546 419.564 165.193 422.383 165.193 425.67C165.193 428.957 164.551 431.782 163.267 434.145C161.983 436.497 160.165 438.305 157.813 439.568C155.461 440.822 152.682 441.448 149.477 441.448ZM145.902 434.176H149.169C150.73 434.176 152.061 433.924 153.16 433.421C154.269 432.917 155.111 432.049 155.687 430.817C156.272 429.584 156.565 427.869 156.565 425.67C156.565 423.472 156.267 421.757 155.671 420.524C155.086 419.291 154.223 418.423 153.083 417.92C151.953 417.417 150.566 417.165 148.922 417.165H145.902V434.176ZM186.53 409.892H195.097V430.108C195.097 432.512 194.522 434.592 193.371 436.348C192.231 438.094 190.639 439.445 188.595 440.4C186.551 441.346 184.178 441.818 181.476 441.818C178.754 441.818 176.371 441.346 174.327 440.4C172.283 439.445 170.691 438.094 169.55 436.348C168.42 434.592 167.856 432.512 167.856 430.108V409.892H176.422V429.368C176.422 430.344 176.638 431.217 177.07 431.988C177.501 432.748 178.097 433.344 178.857 433.775C179.627 434.206 180.5 434.422 181.476 434.422C182.462 434.422 183.336 434.206 184.096 433.775C184.856 433.344 185.452 432.748 185.883 431.988C186.314 431.217 186.53 430.344 186.53 429.368V409.892ZM227.327 421.726H218.637C218.576 421.007 218.411 420.355 218.144 419.769C217.887 419.184 217.528 418.68 217.066 418.259C216.614 417.828 216.064 417.499 215.417 417.273C214.77 417.037 214.035 416.919 213.213 416.919C211.775 416.919 210.558 417.268 209.562 417.966C208.576 418.665 207.826 419.666 207.312 420.971C206.809 422.275 206.557 423.842 206.557 425.67C206.557 427.601 206.814 429.219 207.328 430.524C207.851 431.818 208.606 432.794 209.593 433.451C210.579 434.099 211.765 434.422 213.152 434.422C213.943 434.422 214.652 434.325 215.278 434.129C215.905 433.924 216.449 433.631 216.911 433.251C217.374 432.871 217.749 432.414 218.036 431.88C218.334 431.335 218.534 430.724 218.637 430.046L227.327 430.108C227.225 431.443 226.85 432.804 226.203 434.191C225.555 435.567 224.636 436.841 223.444 438.012C222.263 439.173 220.799 440.108 219.053 440.817C217.307 441.525 215.278 441.88 212.967 441.88C210.07 441.88 207.471 441.258 205.17 440.015C202.88 438.772 201.067 436.944 199.731 434.53C198.406 432.116 197.744 429.163 197.744 425.67C197.744 422.157 198.422 419.199 199.778 416.795C201.134 414.381 202.962 412.558 205.263 411.325C207.564 410.082 210.132 409.461 212.967 409.461C214.96 409.461 216.793 409.733 218.468 410.278C220.142 410.822 221.611 411.618 222.874 412.666C224.138 413.703 225.155 414.982 225.925 416.502C226.696 418.023 227.163 419.764 227.327 421.726ZM229.049 416.795V409.892H256.476V416.795H246.985V441.448H238.541V416.795H229.049Z" fill="white"/>
<g opacity="0.8">
<path fill-rule="evenodd" clip-rule="evenodd" d="M187.065 110.851C187.938 110.851 188.543 110.293 188.632 109.456L190.163 87.6044L191.73 87.1335C193.617 86.5755 194.24 85.3373 194.365 83.1923L195.38 64.6719C195.967 54.0864 166.181 54.1213 166.75 64.6719L167.783 83.1923C167.908 85.3547 168.531 86.5755 170.418 87.1335L171.985 87.6044L173.516 109.456C173.623 110.31 174.21 110.851 175.083 110.851H187.065Z" fill="white"/>
<path d="M215.732 109.925V81.6915C215.732 75.239 213.506 73.5474 209.927 73.5474C206.242 73.5474 204.016 75.2564 204.016 81.4996V109.925H186.604V60.1716H204.016V63.485C207.203 61.1133 210.782 59.1252 216.782 59.1252C227.91 59.1252 233.233 66.4148 233.233 79.4941V109.908H215.732V109.925Z" fill="white"/>
<path opacity="0.3" d="M186.604 109.926H188.526C188.58 109.787 188.633 109.612 188.651 109.456L190.182 87.6043L191.749 87.1335C193.636 86.5754 194.259 85.3372 194.384 83.1922L195.399 64.6719C195.506 62.8582 194.705 61.3585 193.334 60.1726H186.604V109.926Z" fill="white"/>
<path d="M122.703 109.925V106.612C119.409 109.071 114.958 110.972 110.311 110.972C100.447 110.972 93.8594 105.008 93.8594 93.8116C93.8594 83.104 101.408 77.6107 112.145 77.6107C116.791 77.6107 119.889 78.4652 122.685 79.7034V77.2445C122.685 72.8847 120.263 71.3675 115.527 71.3675C110.311 71.3675 106.34 72.3092 101.408 74.96L96.8683 63.6769C103.064 60.7471 109.937 59.1252 118.732 59.1252C132.958 59.1252 139.154 66.0486 139.154 77.6107V109.925H122.703ZM122.703 89.6437C120.762 88.7892 118.536 88.2311 115.26 88.2311C111.682 88.2311 109.848 90.132 109.848 93.5326C109.848 96.6542 111.486 98.9387 115.26 98.9387C118.162 98.9387 121.065 97.8052 122.703 96.4798V89.6437Z" fill="white"/>
<path d="M83.2479 110.972C68.3456 110.972 59.4434 101.677 59.4434 84.9183C59.4434 69.6591 67.3841 59.1433 83.6396 59.1433C93.2184 59.1433 98.7377 63.5031 103.189 70.5136L91.1887 79.425C88.7673 75.0652 87.1293 72.9725 83.3547 72.9725C78.9036 72.9725 76.6781 77.3323 76.6781 85.1973C76.6781 93.0624 79.0995 97.1431 83.8354 97.1431C87.1293 97.1431 89.4438 95.3469 92.6486 90.7081L103.687 99.1486C97.7585 107.659 92.2391 110.972 83.2479 110.972Z" fill="white"/>
<g opacity="0.3">
<path d="M100.426 72.5362L103.168 70.5132C101.405 67.7404 99.4647 65.3687 97.1857 63.5376C97.0789 63.5899 96.9721 63.6422 96.8652 63.6945L100.426 72.5362Z" fill="white"/>
<path d="M103.648 99.1306L93.9623 91.719C93.8911 92.3991 93.8555 93.0967 93.8555 93.8117C93.8555 99.0085 95.2798 103.072 97.7724 105.932C99.7843 104.188 101.707 101.938 103.648 99.1306Z" fill="white"/>
</g>
<path d="M168.904 78.9361C166.679 76.5644 164.168 74.7681 160.768 74.7681C156.512 74.7681 153.895 76.7562 153.895 82.825V109.925H136.482V60.1716H153.895V63.7641C156.886 60.9215 160.287 59.1252 164.738 59.1252C168.406 59.1252 170.934 59.9798 172.964 61.2179L168.904 78.9361Z" fill="white"/>
<path opacity="0.3" d="M166.785 64.6718L167.498 77.5419C167.978 77.9779 168.459 78.4313 168.922 78.9196L172.981 61.2189C171.966 60.5911 170.809 60.0679 169.456 59.7017C167.711 60.9573 166.661 62.614 166.785 64.6718Z" fill="white"/>
<path opacity="0.3" d="M136.5 66.7827V109.927H139.153V77.6124C139.153 73.3224 138.298 69.6776 136.5 66.7827Z" fill="white"/>
<path d="M189.144 46.7622C189.144 51.122 185.53 54.6621 181.079 54.6621C176.628 54.6621 173.014 51.122 173.014 46.7622C173.014 42.4024 176.628 38.8623 181.079 38.8623C185.53 38.8623 189.144 42.4024 189.144 46.7622Z" fill="white"/>
</g>
<g opacity="0.9">
<path fill-rule="evenodd" clip-rule="evenodd" d="M187.065 110.851C187.938 110.851 188.543 110.293 188.632 109.456L190.163 87.6044L191.73 87.1335C193.617 86.5755 194.24 85.3373 194.365 83.1923L195.38 64.6719C195.967 54.0864 166.181 54.1213 166.75 64.6719L167.783 83.1923C167.908 85.3547 168.531 86.5755 170.418 87.1335L171.985 87.6044L173.516 109.456C173.623 110.31 174.21 110.851 175.083 110.851H187.065Z" fill="#1D9C4A" fill-opacity="0.8"/>
<path d="M215.732 109.925V81.6915C215.732 75.239 213.506 73.5474 209.927 73.5474C206.242 73.5474 204.016 75.2564 204.016 81.4996V109.925H186.604V60.1716H204.016V63.485C207.203 61.1133 210.782 59.1252 216.782 59.1252C227.91 59.1252 233.233 66.4148 233.233 79.4941V109.908H215.732V109.925Z" fill="#1D9C4A" fill-opacity="0.8"/>
<path opacity="0.3" d="M186.604 109.926H188.526C188.58 109.787 188.633 109.612 188.651 109.456L190.182 87.6043L191.749 87.1335C193.636 86.5754 194.259 85.3372 194.384 83.1922L195.399 64.6719C195.506 62.8582 194.705 61.3585 193.334 60.1726H186.604V109.926Z" fill="#1D9C4A" fill-opacity="0.8"/>
<path d="M122.703 109.925V106.612C119.409 109.071 114.958 110.972 110.311 110.972C100.447 110.972 93.8594 105.008 93.8594 93.8116C93.8594 83.104 101.408 77.6107 112.145 77.6107C116.791 77.6107 119.889 78.4652 122.685 79.7034V77.2445C122.685 72.8847 120.263 71.3675 115.527 71.3675C110.311 71.3675 106.34 72.3092 101.408 74.96L96.8683 63.6769C103.064 60.7471 109.937 59.1252 118.732 59.1252C132.958 59.1252 139.154 66.0486 139.154 77.6107V109.925H122.703ZM122.703 89.6437C120.762 88.7892 118.536 88.2311 115.26 88.2311C111.682 88.2311 109.848 90.132 109.848 93.5326C109.848 96.6542 111.486 98.9387 115.26 98.9387C118.162 98.9387 121.065 97.8052 122.703 96.4798V89.6437Z" fill="#1D9C4A" fill-opacity="0.8"/>
<path d="M83.2479 110.972C68.3456 110.972 59.4434 101.677 59.4434 84.9183C59.4434 69.6591 67.3841 59.1433 83.6396 59.1433C93.2184 59.1433 98.7377 63.5031 103.189 70.5136L91.1887 79.425C88.7673 75.0652 87.1293 72.9725 83.3547 72.9725C78.9036 72.9725 76.6781 77.3323 76.6781 85.1973C76.6781 93.0624 79.0995 97.1431 83.8354 97.1431C87.1293 97.1431 89.4438 95.3469 92.6486 90.7081L103.687 99.1486C97.7585 107.659 92.2391 110.972 83.2479 110.972Z" fill="#1D9C4A" fill-opacity="0.8"/>
<g opacity="0.3">
<path d="M100.426 72.5362L103.168 70.5132C101.405 67.7404 99.4647 65.3687 97.1857 63.5376C97.0789 63.5899 96.9721 63.6422 96.8652 63.6945L100.426 72.5362Z" fill="#1D9C4A" fill-opacity="0.8"/>
<path d="M103.648 99.1306L93.9623 91.719C93.8911 92.3991 93.8555 93.0967 93.8555 93.8117C93.8555 99.0085 95.2798 103.072 97.7724 105.932C99.7843 104.188 101.707 101.938 103.648 99.1306Z" fill="#1D9C4A" fill-opacity="0.8"/>
</g>
<path d="M168.904 78.9361C166.679 76.5644 164.168 74.7681 160.768 74.7681C156.512 74.7681 153.895 76.7562 153.895 82.825V109.925H136.482V60.1716H153.895V63.7641C156.886 60.9215 160.287 59.1252 164.738 59.1252C168.406 59.1252 170.934 59.9798 172.964 61.2179L168.904 78.9361Z" fill="#1D9C4A" fill-opacity="0.8"/>
<path opacity="0.3" d="M166.785 64.6718L167.498 77.5419C167.978 77.9779 168.459 78.4313 168.922 78.9196L172.981 61.2189C171.966 60.5911 170.809 60.0679 169.456 59.7017C167.711 60.9573 166.661 62.614 166.785 64.6718Z" fill="#1D9C4A" fill-opacity="0.8"/>
<path opacity="0.3" d="M136.5 66.7827V109.927H139.153V77.6124C139.153 73.3224 138.298 69.6776 136.5 66.7827Z" fill="#1D9C4A" fill-opacity="0.8"/>
<path d="M189.144 46.7622C189.144 51.122 185.53 54.6621 181.079 54.6621C176.628 54.6621 173.014 51.122 173.014 46.7622C173.014 42.4024 176.628 38.8623 181.079 38.8623C185.53 38.8623 189.144 42.4024 189.144 46.7622Z" fill="#1D9C4A" fill-opacity="0.8"/>
</g>
</g>
<rect x="5.55138" y="5.55138" width="285.341" height="470.202" rx="27.7569" stroke="#2AA856" stroke-width="11.1028"/>
<defs>
<linearGradient id="paint0_linear_1404_52101" x1="148.223" y1="10.5476" x2="148.223" y2="335.859" gradientUnits="userSpaceOnUse">
<stop stop-color="white"/>
<stop offset="1" stop-color="white" stop-opacity="0"/>
</linearGradient>
<clipPath id="clip0_1404_52101">
<rect width="296.444" height="481.305" rx="33.3083" fill="white"/>
</clipPath>
<clipPath id="clip1_1404_52101">
<rect width="274.238" height="325.311" fill="white" transform="translate(11.1035 10.5476)"/>
</clipPath>
</defs>
</svg>
