<svg width="56" height="54" viewBox="0 0 56 54" fill="none" xmlns="http://www.w3.org/2000/svg">
<g id="Group 5">
<path id="Vector" d="M2.336 40.9876C1.7641 41.9202 1.12181 43.0024 0.620299 43.8647C0.385584 44.2613 0.315845 44.7342 0.426077 45.1817C0.536308 45.6292 0.817709 46.0156 1.20979 46.2579L12.6478 53.2966C12.8466 53.4194 13.0678 53.5013 13.2985 53.5376C13.5293 53.574 13.7649 53.564 13.9918 53.5083C14.2187 53.4526 14.4321 53.3523 14.6198 53.2132C14.8075 53.0742 14.9657 52.8991 15.085 52.6983C15.5337 51.9329 16.1232 50.9387 16.7655 49.874C21.2967 42.3953 25.8631 43.3104 34.0721 47.2345L45.4133 52.628C45.6259 52.7291 45.8567 52.7866 46.0919 52.797C46.3271 52.8074 46.5621 52.7705 46.7828 52.6885C47.0035 52.6064 47.2055 52.4809 47.3768 52.3194C47.5481 52.1579 47.6852 51.9636 47.7801 51.7481L53.2264 39.4302C53.4113 39.0074 53.4227 38.5288 53.2582 38.0976C53.0936 37.6664 52.7662 37.3171 52.3465 37.125C49.9533 35.9988 45.1934 33.7464 40.9085 31.6876C25.4584 24.1737 12.3575 24.6664 2.336 40.9876Z" fill="url(#paint0_linear_54_3758)"/>
<path id="Vector_2" d="M53.6223 13.0084C54.1942 12.0758 54.8365 10.9848 55.382 10.1313C55.6159 9.73362 55.6843 9.25996 55.5724 8.81234C55.4605 8.36472 55.1773 7.97895 54.7837 7.73813L43.3457 0.699354C43.1473 0.578026 42.9268 0.497234 42.6969 0.461644C42.4671 0.426054 42.2325 0.436377 42.0067 0.492012C41.7809 0.547648 41.5683 0.64749 41.3814 0.785774C41.1944 0.924057 41.0366 1.09804 40.9173 1.29765C40.4598 2.06312 39.8703 3.05734 39.228 4.12196C34.6968 11.6007 30.1392 10.6856 21.9214 6.7615L10.545 1.39443C10.3328 1.29464 10.1028 1.23825 9.86858 1.22858C9.63432 1.2189 9.40048 1.25614 9.18081 1.33811C8.96114 1.42007 8.76007 1.54511 8.5894 1.70588C8.41873 1.86664 8.28192 2.0599 8.18698 2.27428L2.74073 14.5921C2.55578 15.015 2.54436 15.4936 2.70894 15.9248C2.87352 16.356 3.20092 16.7053 3.62058 16.8973C6.01376 18.0236 10.7825 20.2672 15.0586 22.3348C30.4999 29.7871 43.6008 29.2944 53.6223 13.0084Z" fill="url(#paint1_linear_54_3758)"/>
</g>
<defs>
<linearGradient id="paint0_linear_54_3758" x1="52.8832" y1="56.904" x2="18.2788" y2="37.0107" gradientUnits="userSpaceOnUse">
<stop stop-color="#0050D3"/>
<stop offset="0.94" stop-color="#007FFC"/>
<stop offset="1" stop-color="#0082FF"/>
</linearGradient>
<linearGradient id="paint1_linear_54_3758" x1="3.07507" y1="-2.93441" x2="37.6795" y2="16.9501" gradientUnits="userSpaceOnUse">
<stop stop-color="#0050D3"/>
<stop offset="0.94" stop-color="#007FFC"/>
<stop offset="1" stop-color="#0082FF"/>
</linearGradient>
</defs>
</svg>
