<svg width="112" height="27" viewBox="0 0 112 27" fill="none" xmlns="http://www.w3.org/2000/svg">
<path fill-rule="evenodd" clip-rule="evenodd" d="M47.969 12.838C48.287 11.347 49.314 10.588 50.665 10.588C52.003 10.588 52.982 11.381 53.295 12.838H47.969ZM50.738 8.006C47.3 8.006 45.161 10.66 45.161 13.907C45.161 17.27 47.446 19.764 50.843 19.764C53.185 19.764 54.606 18.717 55.485 17.399L53.3 16.05C52.75 16.776 51.87 17.16 50.928 17.16C49.385 17.16 48.352 16.462 48 15.066H53.772L53.77 15.072L55.874 15.084C55.954 14.716 56.001 14.337 56.001 13.908C56.001 11.08 54.198 8.007 50.739 8.007L50.738 8.006ZM37.484 17.111C35.585 17.111 34.444 15.75 34.444 14.071C34.444 12.391 35.607 11.03 37.484 11.03C39.36 11.03 40.524 12.391 40.524 14.07C40.524 15.75 39.382 17.111 37.484 17.111ZM40.524 9.925C39.71 8.965 38.555 8.377 37.122 8.377C33.917 8.377 31.612 10.927 31.612 14.071C31.612 17.215 33.896 19.764 37.122 19.764C38.555 19.764 39.71 19.176 40.523 18.216V19.484H43.355V4.388H40.523L40.524 9.925ZM64.478 13.65C65.269 14.19 65.771 15.003 65.771 16.074C65.771 18.24 64.281 19.742 61.493 19.742C58.87 19.742 57.463 18.426 56.903 17.097L59.311 15.721C59.311 15.721 59.635 17.157 61.45 17.157C62.573 17.157 62.919 16.671 62.919 16.242C62.919 16.042 62.854 15.677 62.055 15.367C60.449 14.746 57.345 14.467 57.345 11.633C57.345 9.313 59.202 8.076 61.493 8.076C63.635 8.076 65.011 9.381 65.533 10.396L63.178 11.744C63.178 11.744 62.725 10.617 61.515 10.617C60.305 10.617 60.197 11.302 60.197 11.501C60.197 12.081 60.801 12.319 62.098 12.694C62.866 12.916 63.655 13.118 64.48 13.647L64.478 13.65ZM112 11.124H109.558V15.72C109.558 17.156 110.984 16.847 112 16.847V19.432C112 19.432 111.465 19.52 110.531 19.52C108.457 19.52 106.771 18.901 106.771 15.72V11.124H104.891V8.384H106.771V5.291H109.558V8.384H112V11.124ZM72.7 16.957C73.857 16.957 74.746 16.393 75.196 15.467L77.612 16.884C76.665 18.582 74.901 19.763 72.7 19.763C69.362 19.763 67.029 17.152 67.029 13.93C67.029 10.709 69.384 8.097 72.7 8.097C74.869 8.097 76.626 9.259 77.583 10.934L75.172 12.384C74.714 11.47 73.832 10.904 72.7 10.904C71.014 10.904 69.816 12.258 69.816 13.93C69.816 15.602 71.003 16.957 72.7 16.957ZM98.21 17.447C96.38 17.447 95.279 16.05 95.279 14.326C95.279 12.602 96.401 11.206 98.21 11.206C100.019 11.206 101.141 12.602 101.141 14.326C101.141 16.05 100.041 17.447 98.21 17.447ZM98.559 8.482C101.649 8.482 103.871 11.099 103.871 14.326C103.871 17.553 101.67 20.169 98.559 20.169C97.177 20.169 96.064 19.566 95.279 18.581V24.286H92.549V8.792H95.279V10.071C96.064 9.086 97.177 8.482 98.559 8.482ZM87.301 19.882V8.815H90.031V19.882H87.301ZM82.214 10.705C82.741 9.364 83.814 8.597 85.43 8.593V11.781C83.535 11.593 82.166 12.579 82.216 14.907L82.214 14.902V19.882H79.484V8.815H82.214V10.705ZM87.301 7.338V4.388H90.121V7.338H87.301ZM0 24.567C0 26.043 0.942001 27 2.394 27H9.388C13.56 27 16.974 25.565 19.294 23.053H0V24.567ZM9.388 0H2.394C0.942001 0 0 0.957001 0 2.433V3.947H19.294C16.974 1.435 13.56 0 9.388 0ZM15.492 17.347C15.492 18.541 16.257 19.316 17.437 19.316H21.627C22.103 18.117 22.422 16.8 22.57 15.379H17.437C16.257 15.379 15.492 16.153 15.492 17.347ZM9.682 9.663C9.682 10.857 10.448 11.631 11.628 11.631H22.57C22.4375 10.2818 22.1205 8.9571 21.628 7.694H11.628C10.448 7.694 9.682 8.469 9.682 9.663ZM11.626 17.347C11.626 16.153 10.861 15.379 9.681 15.379H0V19.316H9.681C10.861 19.316 11.626 18.541 11.626 17.347ZM5.817 9.663C5.817 8.469 5.052 7.694 3.872 7.694H0V11.631H3.872C5.052 11.631 5.817 10.857 5.817 9.663Z" fill="#7D7D7D"/>
</svg>
