<svg width="66" height="62" viewBox="0 0 66 62" fill="none" xmlns="http://www.w3.org/2000/svg">
<g id="Group 2">
<path id="Vector" d="M41.3139 29.4884L15.6162 24.9535V58.4617C15.6162 59.992 16.8567 61.2326 18.387 61.2326H62.7291C64.2594 61.2326 65.4999 59.992 65.4999 58.4617V46.1163L41.3139 29.4884Z" fill="#185C37"/>
<path id="Vector_2" d="M41.3139 0.767456H18.387C16.8567 0.767456 15.6162 2.00798 15.6162 3.53826V15.8837L41.3139 31L54.9185 35.5349L65.4999 31V15.8837L41.3139 0.767456Z" fill="#21A366"/>
<path id="Vector_3" d="M15.6162 15.8838H41.3139V31.0001H15.6162V15.8838Z" fill="#107C41"/>
<path id="Vector_4" opacity="0.1" d="M34.0082 12.8605H15.6162V50.6512H34.0082C35.5364 50.6462 36.774 49.4086 36.779 47.8804V15.6313C36.774 14.1031 35.5364 12.8654 34.0082 12.8605Z" fill="black"/>
<path id="Vector_5" opacity="0.2" d="M32.4966 14.3721H15.6162V52.1628H32.4966C34.0248 52.1578 35.2624 50.9202 35.2674 49.392V17.1429C35.2624 15.6147 34.0248 14.377 32.4966 14.3721Z" fill="black"/>
<path id="Vector_6" opacity="0.2" d="M32.4966 14.3721H15.6162V49.1395H32.4966C34.0248 49.1345 35.2624 47.8969 35.2674 46.3687V17.1429C35.2624 15.6147 34.0248 14.377 32.4966 14.3721Z" fill="black"/>
<path id="Vector_7" opacity="0.2" d="M30.9849 14.3721H15.6162V49.1395H30.9849C32.5131 49.1345 33.7508 47.8969 33.7557 46.3687V17.1429C33.7508 15.6147 32.5131 14.377 30.9849 14.3721Z" fill="black"/>
<path id="Vector_8" d="M3.27081 14.3721H30.985C32.5153 14.3721 33.7558 15.6126 33.7558 17.1429V44.857C33.7558 46.3873 32.5153 47.6278 30.985 47.6278H3.27081C1.74053 47.6279 0.5 46.3873 0.5 44.8571V17.1429C0.5 15.6126 1.74053 14.3721 3.27081 14.3721Z" fill="url(#paint0_linear_54_3761)"/>
<path id="Vector_9" d="M9.08154 40.0063L14.9104 30.9743L9.56981 21.9922H13.8658L16.7803 27.7364C17.0493 28.2821 17.2337 28.6872 17.3335 28.9547H17.3713C17.5628 28.5194 17.7643 28.0966 17.976 27.6865L21.0914 21.9952H25.0352L19.5586 30.9244L25.1743 40.0062H20.9781L17.6117 33.7013C17.4531 33.433 17.3185 33.1512 17.2096 32.8593H17.1597C17.0611 33.1453 16.9303 33.4192 16.7697 33.6756L13.3035 40.0063H9.08154Z" fill="white"/>
<path id="Vector_10" d="M62.7292 0.767456H41.314V15.8837H65.5V3.53826C65.5 2.00798 64.2595 0.767456 62.7292 0.767456Z" fill="#33C481"/>
<path id="Vector_11" d="M41.314 31H65.5V46.1163H41.314V31Z" fill="#107C41"/>
</g>
<defs>
<linearGradient id="paint0_linear_54_3761" x1="6.27721" y1="12.207" x2="27.9786" y2="49.7929" gradientUnits="userSpaceOnUse">
<stop stop-color="#18884F"/>
<stop offset="0.5" stop-color="#117E43"/>
<stop offset="1" stop-color="#0B6631"/>
</linearGradient>
</defs>
</svg>
