<svg width="58" height="59" viewBox="0 0 58 59" fill="none" xmlns="http://www.w3.org/2000/svg">
<g id="Group 4">
<path id="Vector" d="M56.3559 27.7959L31.1962 2.63629L28.7729 0.166626L9.81828 19.1058L1.15905 27.7959C0.725471 28.23 0.481934 28.8185 0.481934 29.4321C0.481934 30.0456 0.725471 30.6341 1.15905 31.0682L18.4621 48.3712L28.7729 58.6666L47.7121 39.7274L48.0053 39.4342L56.3559 31.0373C56.7801 30.6045 57.0177 30.0227 57.0177 29.4166C57.0177 28.8106 56.7801 28.2287 56.3559 27.7959ZM28.7729 38.045L20.1291 29.4012L28.7729 20.7574L37.4167 29.4012L28.7729 38.045Z" fill="#0082FF"/>
<path id="Vector_2" d="M28.7728 20.7574C26.0542 18.0385 24.5218 14.3543 24.5102 10.5095C24.4987 6.66458 26.0089 2.97131 28.711 0.236084L9.80273 19.1444L20.0981 29.4398L28.7728 20.7574Z" fill="url(#paint0_linear_54_3798)"/>
<path id="Vector_3" d="M37.4245 29.3781L28.7729 38.045C30.1301 39.3973 31.2069 41.0042 31.9417 42.7736C32.6765 44.5429 33.0547 46.4399 33.0547 48.3558C33.0547 50.2717 32.6765 52.1687 31.9417 53.9381C31.2069 55.7074 30.1301 57.3143 28.7729 58.6666L47.7353 39.7043L37.4245 29.3781Z" fill="url(#paint1_linear_54_3798)"/>
</g>
<defs>
<linearGradient id="paint0_linear_54_3798" x1="27.2138" y1="12.0133" x2="15.1434" y2="24.0837" gradientUnits="userSpaceOnUse">
<stop offset="0.18" stop-color="#0050D3"/>
<stop offset="1" stop-color="#0082FF"/>
</linearGradient>
<linearGradient id="paint1_linear_54_3798" x1="30.4091" y1="46.6888" x2="42.4564" y2="34.6415" gradientUnits="userSpaceOnUse">
<stop offset="0.18" stop-color="#0050D3"/>
<stop offset="1" stop-color="#0082FF"/>
</linearGradient>
</defs>
</svg>
