<svg width="143" height="26" viewBox="0 0 143 26" fill="none" xmlns="http://www.w3.org/2000/svg">
<path d="M17.202 21.702C17.3189 21.0138 17.2577 20.3072 17.0242 19.6494C16.7907 18.9915 16.3926 18.4044 15.868 17.944C15.0939 17.2344 14.0821 16.8405 13.032 16.84C12.413 16.84 11.817 16.7 11.269 16.417C10.5602 16.0391 9.97987 15.4588 9.602 14.75C9.816 14.21 9.912 13.622 9.912 12.988C9.912 14.703 11.293 16.088 13.009 16.088H13.08C13.8935 16.0749 14.6692 15.7425 15.2398 15.1625C15.8104 14.5826 16.1301 13.8016 16.13 12.988C16.13 12.378 16.249 11.79 16.44 11.227C16.8138 10.248 17.4873 9.41206 18.3644 8.83849C19.2414 8.26492 20.2772 7.98302 21.324 8.033C20.5075 6.66027 19.3607 5.51349 17.988 4.697V4.932C17.9843 6.00803 17.6336 7.05418 16.988 7.915C16.7967 7.75275 16.5889 7.61098 16.368 7.492C16.94 6.764 17.226 5.872 17.226 4.956C17.226 4.416 17.13 3.876 16.916 3.358C16.6052 2.6031 16.0817 1.9548 15.4092 1.49196C14.7366 1.02912 13.9441 0.771696 13.128 0.751H12.89C11.841 0.751 10.817 0.892 9.816 1.174C7.74291 1.72941 5.85241 2.82042 4.33429 4.33749C2.81617 5.85456 1.72385 7.7443 1.167 9.817C0.453 10.687 0.024 11.743 0 12.871C0.072 5.801 5.79 0.071 12.89 0H13.223C20.275 0.117 25.97 5.801 26.041 12.87V13.153C26.0188 14.2757 25.6062 15.3556 24.874 16.207C24.1988 17.0166 23.2791 17.5851 22.253 17.827C21.871 17.9201 21.4792 17.9675 21.086 17.968C20.0132 17.9657 18.9693 17.6202 18.107 16.982C17.797 17.405 17.417 17.757 17.011 18.086C17.7081 19.0088 18.0544 20.1494 17.988 21.304C19.3607 20.4875 20.5075 19.3407 21.324 17.968C21.634 17.945 21.944 17.897 22.253 17.827C21.3714 19.5086 20.0459 20.9176 18.4205 21.8989C16.795 22.8801 14.9317 23.3972 13.033 23.394C12.293 23.394 11.603 23.042 11.174 22.478C10.8659 22.0637 10.6991 21.5613 10.698 21.045C10.698 20.341 11.031 19.683 11.532 19.26C12.008 19.378 12.532 19.448 13.056 19.448C12.6272 19.4506 12.2166 19.6221 11.9134 19.9254C11.6101 20.2286 11.4386 20.6392 11.436 21.068C11.436 21.961 12.151 22.689 13.056 22.689H13.08C13.5088 22.6864 13.9194 22.5149 14.2226 22.2116C14.5259 21.9084 14.6974 21.4978 14.7 21.069C14.7 20.176 13.985 19.448 13.08 19.448C11.8955 19.4454 10.734 19.1204 9.72 18.508C9.506 18.368 9.292 18.227 9.101 18.086C8.68772 17.7609 8.31205 17.3906 7.981 16.982C8.172 16.841 8.363 16.677 8.553 16.489C9.08471 17.1845 9.76994 17.7477 10.5552 18.1347C11.3405 18.5217 12.2046 18.722 13.08 18.72C13.7033 18.7221 14.3006 18.9699 14.7422 19.4097C15.1839 19.8495 15.4343 20.4457 15.439 21.069C15.439 21.585 15.272 22.079 14.962 22.501C15.749 22.337 16.511 22.102 17.226 21.75L17.202 21.702ZM22.515 11.132C22.3692 10.3406 22.1127 9.57378 21.753 8.854C21.1906 8.7639 20.6158 8.78822 20.063 8.92551C19.5103 9.06281 18.9909 9.31024 18.536 9.653C18.0184 10.047 17.5987 10.555 17.3094 11.1375C17.0201 11.7201 16.8691 12.3616 16.868 13.012C16.868 13.646 16.725 14.232 16.44 14.773C16.0712 15.4809 15.4985 16.062 14.796 16.441C15.439 16.676 16.011 17.051 16.511 17.521C17.1045 17.0704 17.5991 16.5027 17.964 15.853C18.464 14.984 18.727 14.022 18.727 13.012C18.727 12.424 18.941 11.908 19.299 11.485C19.6911 11.0304 20.2409 10.7413 20.8377 10.676C21.4345 10.6107 22.0338 10.773 22.515 11.132ZM22.682 12.942C22.658 12.096 21.943 11.415 21.062 11.391C20.6355 11.3883 20.2254 11.555 19.9217 11.8544C19.6179 12.1538 19.4454 12.5615 19.442 12.988V13.035C19.465 13.905 20.18 14.585 21.062 14.585C21.4885 14.5877 21.8986 14.421 22.2023 14.1216C22.5061 13.8222 22.6786 13.4145 22.682 12.988V12.942ZM19.299 14.538C19.132 15.172 18.894 15.807 18.536 16.37C18.9881 16.7178 19.5073 16.9684 20.061 17.1059C20.6146 17.2434 21.1907 17.2649 21.753 17.169C22.063 17.122 22.372 17.028 22.682 16.91C23.438 16.6015 24.088 16.08 24.5532 15.4089C25.0183 14.7379 25.2784 13.9462 25.302 13.13V12.918C25.302 11.884 25.16 10.851 24.874 9.841C23.754 5.661 20.442 2.349 16.249 1.198C17.0472 1.87717 17.6135 2.78855 17.869 3.805V3.828C20.05 4.97325 21.755 6.85368 22.682 9.136C23.182 10.334 23.444 11.649 23.444 13.036C23.444 13.786 23.087 14.468 22.515 14.891C22.1043 15.2058 21.6025 15.3788 21.085 15.384C20.7452 15.3728 20.4114 15.2919 20.1042 15.1463C19.797 15.0008 19.5229 14.7938 19.299 14.538ZM12.842 26C5.79 25.882 0.0950002 20.175 0.0240002 13.13V12.847C0.0463925 11.7246 0.459032 10.6451 1.191 9.794C1.8728 8.99208 2.78985 8.42526 3.812 8.174C4.193 8.079 4.598 8.032 4.98 8.032C6.052 8.032 7.1 8.385 7.958 9.019C8.268 8.596 8.648 8.244 9.054 7.915C8.36015 6.98939 8.00662 5.85287 8.053 4.697C6.68042 5.51324 5.53365 6.65966 4.717 8.032C4.407 8.056 4.098 8.102 3.788 8.173C4.66955 6.49135 5.99506 5.08342 7.62053 4.10214C9.24601 3.12086 11.1093 2.60376 13.008 2.607C13.748 2.607 14.438 2.959 14.867 3.523C15.177 3.923 15.344 4.415 15.344 4.956C15.3438 5.29639 15.269 5.6326 15.125 5.94099C14.9809 6.24938 14.771 6.52245 14.51 6.741C14.01 6.623 13.509 6.553 12.985 6.553C13.4138 6.55038 13.8244 6.37886 14.1276 6.07561C14.4309 5.77237 14.6024 5.36184 14.605 4.933C14.605 4.04 13.89 3.311 12.985 3.311H12.961C12.532 3.31363 12.1213 3.48528 11.818 3.78874C11.5148 4.0922 11.3434 4.50298 11.341 4.932C11.341 5.825 12.056 6.552 12.961 6.552C14.152 6.552 15.296 6.882 16.321 7.492C16.535 7.633 16.749 7.774 16.94 7.915C17.345 8.244 17.726 8.62 18.06 9.019C17.869 9.159 17.678 9.324 17.488 9.512C16.9563 8.81651 16.2711 8.2533 15.4858 7.8663C14.7005 7.4793 13.8365 7.27899 12.961 7.281C12.4031 7.27288 11.8649 7.07382 11.436 6.717C11.1766 6.49712 10.9678 6.22378 10.8238 5.9157C10.6799 5.60761 10.6042 5.27205 10.602 4.932C10.602 4.392 10.792 3.899 11.079 3.499C10.293 3.664 9.506 3.922 8.792 4.251C8.6751 4.93918 8.73632 5.64582 8.96983 6.30364C9.20334 6.96146 9.60137 7.54855 10.126 8.009C10.8998 8.71836 11.9112 9.11223 12.961 9.113C13.581 9.113 14.176 9.253 14.724 9.536C15.4332 9.91371 16.0139 10.494 16.392 11.203C16.1701 11.7632 16.0646 12.3627 16.082 12.965C16.082 11.25 14.7 9.865 12.985 9.865H12.961C12.1475 9.87812 11.3718 10.2105 10.8012 10.7905C10.2306 11.3704 9.91089 12.1514 9.911 12.965C9.911 13.575 9.792 14.163 9.601 14.726C9.22704 15.7049 8.55352 16.5408 7.67649 17.1143C6.79947 17.6879 5.76373 17.9698 4.717 17.92C5.53365 19.2923 6.68042 20.4388 8.053 21.255C7.99828 20.1092 8.34367 18.9801 9.03 18.061C9.22 18.226 9.435 18.367 9.65 18.484C9.08697 19.2092 8.78471 20.1029 8.792 21.021C8.792 21.561 8.887 22.101 9.102 22.618C9.41282 23.3729 9.93634 24.0212 10.6088 24.484C11.2814 24.9469 12.0739 25.2043 12.89 25.225H13.104C14.152 25.225 15.177 25.084 16.177 24.802C18.2503 24.2468 20.1411 23.1559 21.6594 21.6388C23.1777 20.1217 24.2702 18.2319 24.827 16.159C25.541 15.289 25.97 14.233 25.993 13.106C25.922 20.176 20.203 25.906 13.104 25.976H12.818C12.89 26 12.842 26 12.842 26ZM9.816 24.825C9.01783 24.1458 8.45151 23.2344 8.196 22.218V22.195C6.01503 21.0498 4.30996 19.1693 3.383 16.887C2.88154 15.6482 2.62285 14.3245 2.621 12.988C2.621 12.237 2.978 11.555 3.55 11.133C3.95863 10.8142 4.46172 10.6404 4.98 10.639C5.694 10.639 6.338 10.969 6.766 11.462C6.933 10.804 7.171 10.193 7.529 9.63C7.07691 9.28205 6.55775 9.03136 6.00413 8.89369C5.45051 8.75602 4.8744 8.73433 4.312 8.83C3.34227 8.98431 2.45687 9.47243 1.80872 10.21C1.16056 10.9477 0.790343 11.8885 0.761999 12.87V13.106C0.761999 14.139 0.904999 15.172 1.192 16.182C2.335 20.386 5.622 23.698 9.816 24.825ZM4.312 17.169C4.87439 17.2592 5.4492 17.2349 6.00198 17.0976C6.55476 16.9603 7.07414 16.7128 7.529 16.37C8.04643 15.9761 8.4661 15.4683 8.75538 14.8859C9.04467 14.3035 9.19579 13.6623 9.197 13.012C9.197 12.378 9.34 11.79 9.625 11.25C9.99381 10.5421 10.5665 9.96103 11.269 9.582H11.246C10.6066 9.34216 10.0228 8.9747 9.53 8.502C8.93654 8.95262 8.44198 9.52035 8.077 10.17C7.5761 11.0333 7.31284 12.0139 7.314 13.012C7.314 13.599 7.1 14.116 6.743 14.538C6.52122 14.7948 6.24695 15.0011 5.93868 15.1429C5.63041 15.2847 5.29532 15.3587 4.956 15.36C4.43785 15.3588 3.9348 15.1854 3.526 14.867C3.716 15.666 3.979 16.441 4.312 17.169ZM3.383 13.082C3.431 13.928 4.122 14.632 5.003 14.632C5.42949 14.6347 5.8396 14.468 6.14333 14.1686C6.44705 13.8692 6.61956 13.4615 6.623 13.035V12.988C6.60942 12.5691 6.4322 12.1721 6.12934 11.8824C5.82648 11.5926 5.42212 11.4331 5.003 11.438C4.098 11.438 3.383 12.166 3.383 13.058V13.082ZM36.5 6.2H40.074L43.41 15.172H43.458L46.745 6.2H50.319V18.836H48.056V8.69H48.032L44.148 18.836H42.552L38.716 8.69H38.692V18.836H36.524L36.5 6.2ZM56.561 6.2H65.043V8.173H58.85V11.391H64.735V13.27H58.825V16.84H65.354V18.836H56.539L56.561 6.2ZM75.145 11.65C75.479 11.65 75.789 11.626 76.122 11.579C76.432 11.532 76.718 11.438 77.004 11.321C77.266 11.18 77.48 10.991 77.647 10.757C77.814 10.522 77.909 10.193 77.909 9.817C77.909 9.465 77.838 9.183 77.671 8.972C77.504 8.76 77.313 8.572 77.075 8.455C76.8189 8.30965 76.5344 8.22162 76.241 8.197C75.9417 8.14945 75.6391 8.12604 75.336 8.127H73.263V11.673C73.287 11.649 75.145 11.65 75.145 11.65ZM71 6.2H75.455C76.051 6.2 76.646 6.27 77.218 6.388C77.7505 6.50309 78.2587 6.71019 78.72 7C79.149 7.282 79.53 7.681 79.768 8.127C80.031 8.597 80.173 9.161 80.173 9.818C80.173 10.734 79.911 11.486 79.387 12.05C78.863 12.637 78.148 13.013 77.243 13.224L80.65 18.814H77.91L74.956 13.459H73.288V18.814H71V6.2ZM95.039 9.16C94.7085 8.70974 94.2529 8.36652 93.729 8.173C93.2226 7.96595 92.68 7.86225 92.133 7.868C91.513 7.868 90.894 7.985 90.322 8.22C89.7939 8.455 89.3164 8.79019 88.916 9.207C88.5143 9.6225 88.2058 10.1189 88.011 10.663C87.797 11.25 87.677 11.861 87.701 12.471C87.701 13.152 87.797 13.787 88.011 14.351C88.225 14.914 88.511 15.407 88.893 15.831C89.274 16.229 89.726 16.558 90.251 16.793C90.775 17.028 91.37 17.122 92.037 17.122C92.728 17.122 93.324 16.981 93.872 16.722C94.372 16.464 94.825 16.112 95.159 15.666L96.993 16.934C96.4413 17.6318 95.7305 18.1873 94.92 18.554C94.11 18.93 93.133 19.142 92.037 19.142C91.037 19.142 90.108 18.977 89.274 18.648C88.468 18.3425 87.731 17.8795 87.106 17.286C86.4919 16.6897 86.0125 15.9689 85.7 15.172C85.366 14.35 85.2 13.458 85.2 12.472C85.2 11.462 85.366 10.545 85.724 9.724C86.0542 8.93861 86.5498 8.2336 87.177 7.657C87.8106 7.0738 88.5564 6.62601 89.369 6.341C90.6576 5.87404 92.046 5.75268 93.396 5.989C93.848 6.059 94.277 6.177 94.682 6.341C95.087 6.506 95.468 6.694 95.85 6.928C96.207 7.163 96.517 7.445 96.779 7.774C96.779 7.821 95.039 9.16 95.039 9.16ZM112.003 14.186C112.009 14.8953 111.871 15.5984 111.598 16.253C111.356 16.8466 110.981 17.3769 110.502 17.803C110.026 18.226 109.478 18.578 108.882 18.789C108.224 19.0239 107.531 19.1433 106.833 19.142C106.135 19.1413 105.442 19.0219 104.784 18.789C104.179 18.5673 103.621 18.2327 103.14 17.803C102.674 17.3656 102.301 16.8383 102.044 16.253C101.782 15.643 101.663 14.961 101.663 14.186V6.2H103.95V14.092C103.95 14.468 103.998 14.82 104.093 15.196C104.188 15.5448 104.35 15.8718 104.57 16.159C104.784 16.441 105.094 16.676 105.451 16.863C105.809 17.051 106.285 17.122 106.809 17.122C107.357 17.122 107.81 17.028 108.167 16.863C108.525 16.699 108.811 16.464 109.049 16.159C109.263 15.877 109.43 15.549 109.525 15.196C109.621 14.844 109.668 14.468 109.668 14.092V6.2H111.956C112.003 6.2 112.003 14.186 112.003 14.186ZM122.272 11.649C122.605 11.649 122.915 11.626 123.249 11.579C123.582 11.532 123.868 11.438 124.13 11.321C124.392 11.18 124.607 10.991 124.774 10.757C124.94 10.522 125.036 10.193 125.036 9.817C125.036 9.465 124.964 9.183 124.797 8.972C124.646 8.75211 124.441 8.57423 124.202 8.455C123.946 8.30962 123.661 8.22159 123.368 8.197C123.069 8.14945 122.766 8.12604 122.463 8.127H120.39V11.673C120.414 11.649 122.272 11.649 122.272 11.649ZM118.126 6.2H122.582C123.177 6.2 123.773 6.27 124.345 6.388C124.877 6.50295 125.385 6.70971 125.846 6.999C126.275 7.281 126.632 7.657 126.894 8.126C127.156 8.596 127.299 9.16 127.299 9.817C127.299 10.733 127.037 11.485 126.513 12.049C125.989 12.636 125.274 13.012 124.369 13.223L127.776 18.813H125.036L122.081 13.458H120.414V18.813H118.126V6.2ZM135.9 13.364L131.087 6.224H133.875L137.091 11.532L140.355 6.224H143L138.187 13.364V18.836H135.9V13.364Z" fill="#7D7D7D"/>
</svg>
