<svg width="66" height="40" viewBox="0 0 66 40" fill="none" xmlns="http://www.w3.org/2000/svg">
<g id="Group 6">
<path id="path841" d="M8.33572 39.8068C6.89885 39.8099 5.48689 39.4316 4.2441 38.7104C3.00131 37.9893 1.97223 36.9511 1.26199 35.702C0.562617 34.4618 0.213823 33.0546 0.252967 31.6313C0.292111 30.208 0.717718 28.8221 1.4842 27.6222L16.0514 4.74674C16.797 3.51732 17.8555 2.50782 19.1189 1.82137C20.3823 1.13491 21.8052 0.796092 23.2424 0.839523C24.6785 0.873937 26.0797 1.28928 27.3025 2.04305C28.5253 2.79682 29.526 3.86195 30.202 5.12944C31.5599 7.69722 31.3902 10.7866 29.7637 13.197L15.2058 36.0724C14.4675 37.2228 13.4508 38.1682 12.2499 38.821C11.0489 39.4738 9.70261 39.8129 8.33572 39.8068Z" fill="#F62B54"/>
<path id="path843" d="M33.3225 39.8062C30.3843 39.8062 27.6808 38.2352 26.2611 35.7107C25.5633 34.4738 25.2153 33.0703 25.2544 31.6507C25.2936 30.2311 25.7184 28.849 26.4833 27.6524L41.0227 4.82943C41.7573 3.58272 42.8121 2.55524 44.0776 1.85356C45.3431 1.15188 46.7734 0.801539 48.2199 0.838884C51.1827 0.903696 53.8678 2.56102 55.2257 5.15349C56.5744 7.74596 56.3769 10.8538 54.7011 13.258L40.1647 36.081C39.4288 37.2265 38.4162 38.1682 37.2204 38.8193C36.0245 39.4703 34.684 39.8097 33.3225 39.8062Z" fill="#FFCC00"/>
<path id="ellipse845" d="M57.7506 39.9975C61.8926 39.9975 65.2503 36.7102 65.2503 32.6552C65.2503 28.6002 61.8926 25.313 57.7506 25.313C53.6087 25.313 50.251 28.6002 50.251 32.6552C50.251 36.7102 53.6087 39.9975 57.7506 39.9975Z" fill="#00CA72"/>
</g>
</svg>
