<svg width="104" height="19" viewBox="0 0 104 19" fill="none" xmlns="http://www.w3.org/2000/svg">
<path d="M0 18.52V0.479978H4.645V2.89798C5.10303 2.03361 5.79327 1.31428 6.638 0.820977C7.47083 0.335411 8.42591 0.100028 9.389 0.142978C10.3788 0.112533 11.3566 0.366947 12.206 0.875978C13.0674 1.39375 13.7679 2.14093 14.229 3.03398C16.049 1.04998 17.445 0.143977 19.623 0.143977C23.553 0.143977 25.763 2.42598 25.763 6.62798V18.52H20.759V8.74498C20.759 6.22498 20.24 5.08198 18.323 5.08198C16.374 5.08198 15.334 6.32498 15.334 8.74498V18.52H10.3V8.74498C10.3 6.22498 9.78 5.08198 7.863 5.08198C5.914 5.08198 4.874 6.32498 4.874 8.74498V18.52H0ZM31.688 2.82998C32.9487 1.50496 34.5785 0.589366 36.366 0.201978C38.142 -0.178284 39.9918 -0.00733316 41.668 0.691978C43.364 1.40339 44.8102 2.60285 45.823 4.13798C46.8539 5.6967 47.4161 7.51838 47.443 9.38698C47.4771 10.6423 47.2612 11.8918 46.808 13.063C46.3595 14.2241 45.6805 15.2824 44.812 16.174C43.9583 17.0822 42.926 17.804 41.78 18.294C40.6442 18.7787 39.4188 19.0183 38.184 18.997C36.9467 19.0314 35.7172 18.7909 34.584 18.293C33.4394 17.7893 32.4179 17.0431 31.59 16.106C29.922 14.325 29 11.934 29.023 9.45298C29.0178 8.22325 29.2508 7.00416 29.709 5.86298C30.1628 4.73165 30.8353 3.70097 31.688 2.82998ZM38.218 13.953C39.077 13.991 39.928 13.761 40.66 13.294C41.3983 12.8204 41.979 12.1377 42.328 11.333C42.5933 10.7241 42.7233 10.0649 42.709 9.40086C42.6946 8.73684 42.5363 8.08385 42.245 7.48698C41.9571 6.89687 41.5414 6.3783 41.028 5.96898C40.5221 5.565 39.9302 5.28242 39.298 5.14298C38.4561 4.95792 37.5776 5.03791 36.783 5.37198C35.9793 5.71146 35.2963 6.28501 34.823 7.01798C34.3418 7.76269 34.0878 8.63135 34.092 9.51798C34.082 10.09 34.18 10.658 34.382 11.19C34.582 11.722 34.884 12.208 35.267 12.62C35.65 13.032 36.107 13.362 36.614 13.59C37.1182 13.8184 37.6646 13.9419 38.218 13.953ZM50.706 18.52V0.479978H55.578L55.514 2.89898C56.0148 2.01342 56.751 1.28381 57.641 0.790978C58.5186 0.306119 59.5163 0.0816692 60.517 0.143977C64.123 0.143977 66.461 2.49498 66.461 6.62798V18.52H61.329V8.74498C61.329 6.22498 60.809 5.08198 58.827 5.08198C56.813 5.08198 55.741 6.32498 55.741 8.74498V18.52H50.706ZM88.242 2.82798C89.5026 1.50195 91.1329 0.585618 92.921 0.197978C94.6976 -0.182702 96.5482 -0.0117452 98.225 0.687978C99.9211 1.39913 101.367 2.59865 102.38 4.13398C103.41 5.69314 103.972 7.51528 103.997 9.38398C104.03 10.6392 103.815 11.8887 103.362 13.06C102.913 14.221 102.234 15.2793 101.366 16.171C100.512 17.0792 99.4793 17.8009 98.333 18.291C97.1974 18.7753 95.9724 19.0148 94.738 18.994C93.5004 19.0284 92.2705 18.788 91.137 18.29C89.9927 17.786 88.9712 17.0398 88.143 16.103C86.475 14.322 85.553 11.932 85.576 9.45098C85.5709 8.22126 85.8039 7.00219 86.262 5.86098C86.7153 4.72966 87.3875 3.69896 88.24 2.82798H88.242ZM94.772 13.951C95.6348 13.9875 96.4879 13.757 97.215 13.291C97.9533 12.8173 98.5339 12.1347 98.883 11.33C99.2366 10.515 99.3467 9.61514 99.2 8.73898C99.0561 7.86732 98.6593 7.05713 98.059 6.40898C97.4696 5.77104 96.6997 5.32801 95.852 5.13898C95.01 4.95384 94.1314 5.03419 93.337 5.36898C92.5335 5.7089 91.8509 6.28279 91.378 7.01598C90.8971 7.76083 90.6432 8.6294 90.647 9.51598C90.637 10.088 90.735 10.656 90.937 11.188C91.138 11.72 91.439 12.206 91.822 12.618C92.205 13.03 92.663 13.359 93.169 13.588C93.6732 13.8163 94.2186 13.9398 94.772 13.951ZM70.202 18.521V14.757L77.382 5.14398H70.202V0.477979H83.164V4.74598L76.829 13.852H83.294V18.519H70.203L70.202 18.521Z" fill="#7D7D7D"/>
</svg>
