<svg width="63" height="66" viewBox="0 0 63 66" fill="none" xmlns="http://www.w3.org/2000/svg">
<g id="Group 8">
<path id="Vector" d="M4.41105 3.30349L40.3775 0.646943C44.7955 0.267993 45.9304 0.523443 48.7085 2.54299L60.1895 10.6309C62.0829 12.0219 62.7134 12.4009 62.7134 13.9154V58.2733C62.7134 61.0534 61.704 62.6979 58.1699 62.9488L16.4035 65.4786C13.7515 65.604 12.4886 65.2251 11.0995 63.4551L2.645 52.461C1.12855 50.4376 0.5 48.9231 0.5 47.1525V7.72349C0.5 5.45044 1.50945 3.55504 4.41105 3.30349Z" fill="white"/>
<path id="Vector_2" fill-rule="evenodd" clip-rule="evenodd" d="M40.3775 0.647593L4.41105 3.30414C1.50945 3.55504 0.5 5.45109 0.5 7.72349V47.1525C0.5 48.9224 1.12855 50.4369 2.645 52.461L11.0995 63.4545C12.4886 65.2244 13.7515 65.604 16.4035 65.4779L58.1706 62.9494C61.702 62.6979 62.7141 61.0534 62.7141 58.274V13.916C62.7141 12.4795 62.1466 12.0655 60.4761 10.8396L48.7085 2.54299C45.9311 0.523443 44.7955 0.267993 40.3775 0.646943V0.647593ZM17.348 13.19C13.9374 13.4194 13.1639 13.4714 11.2269 11.8965L6.30255 7.97959C5.80205 7.47259 6.0536 6.84014 7.3146 6.71404L41.89 4.18749C44.7936 3.93399 46.3055 4.94604 47.441 5.83004L53.371 10.1265C53.6245 10.2546 54.255 11.0105 53.4964 11.0105L17.79 13.1601L17.348 13.19ZM13.3719 57.895V20.2386C13.3719 18.5941 13.877 17.8355 15.3889 17.7081L56.4 15.307C57.791 15.1816 58.4195 16.0656 58.4195 17.7075V55.113C58.4195 56.7575 58.166 58.1485 55.8956 58.274L16.6505 60.549C14.3801 60.6744 13.3726 59.9185 13.3726 57.895H13.3719ZM52.1119 22.2575C52.3635 23.395 52.1119 24.5325 50.9744 24.6625L49.0829 25.0375V52.84C47.4404 53.724 45.9285 54.229 44.6649 54.229C42.6453 54.229 42.1409 53.5966 40.6284 51.7025L28.2589 32.2415V51.07L32.1719 51.956C32.1719 51.956 32.1719 54.231 29.0148 54.231L20.3113 54.736C20.0578 54.229 20.3113 52.9661 21.1934 52.7145L23.4664 52.084V27.189L20.312 26.9336C20.0585 25.7961 20.689 24.1535 22.457 24.0261L31.7955 23.3976L44.6655 43.1101V25.6706L41.385 25.2936C41.1315 23.9007 42.1409 22.8886 43.4019 22.7651L52.1119 22.2575Z" fill="black"/>
</g>
</svg>
