<svg width="141" height="32" viewBox="0 0 141 32" fill="none" xmlns="http://www.w3.org/2000/svg">
<path d="M69.41 9.601H70.488V11.843H69.093C68 11.843 67.186 12.109 66.647 12.64C66.109 13.172 65.839 14.044 65.839 15.257V22.605H63.637V9.651H65.839V11.718C65.839 11.834 65.897 11.893 66.011 11.893C66.075 11.893 66.124 11.877 66.158 11.843C66.2039 11.7837 66.2373 11.7156 66.256 11.643C66.68 10.283 67.732 9.601 69.412 9.601H69.41ZM83.792 12.378C84.37 13.416 84.661 14.666 84.661 16.128C84.661 17.588 84.372 18.838 83.792 19.876C83.212 20.914 82.463 21.69 81.541 22.206C80.6343 22.7172 79.6099 22.9833 78.569 22.978C76.481 22.978 75.013 22.131 74.166 20.436C74.101 20.304 74.018 20.236 73.92 20.236C73.822 20.236 73.773 20.286 73.773 20.386V27.337H71.572V9.651H73.773V11.868C73.773 11.968 73.823 12.018 73.92 12.018C74.018 12.018 74.1 11.952 74.166 11.818C75.013 10.124 76.481 9.276 78.569 9.276C79.629 9.276 80.619 9.533 81.541 10.049C82.463 10.564 83.212 11.339 83.792 12.378ZM82.459 16.128C82.459 14.598 82.056 13.408 81.249 12.553C80.441 11.698 79.379 11.27 78.056 11.27C76.733 11.27 75.67 11.698 74.863 12.553C74.055 13.409 73.759 14.6 73.759 16.127C73.759 17.654 74.055 18.847 74.863 19.702C75.67 20.558 76.735 20.984 78.056 20.984C79.376 20.984 80.441 20.556 81.249 19.702C82.056 18.847 82.459 17.655 82.459 16.128ZM47.413 12.398C47.991 13.436 48.282 14.686 48.282 16.147C48.282 17.607 47.993 18.857 47.412 19.896C46.833 20.934 46.083 21.71 45.162 22.226C44.2552 22.7371 43.2309 23.0031 42.19 22.998C40.102 22.998 38.634 22.15 37.787 20.456C37.722 20.324 37.64 20.256 37.542 20.256C37.443 20.256 37.394 20.306 37.394 20.406V27.356H35.194V9.672H37.396V11.889C37.396 11.989 37.445 12.039 37.543 12.039C37.641 12.039 37.722 11.972 37.788 11.839C38.636 10.144 40.104 9.297 42.192 9.297C43.252 9.297 44.242 9.554 45.164 10.069C46.085 10.585 46.835 11.361 47.414 12.399L47.413 12.398ZM46.08 16.147C46.08 14.618 45.677 13.427 44.87 12.573C44.062 11.718 43 11.29 41.677 11.29C40.355 11.29 39.291 11.718 38.484 12.573C37.676 13.429 37.38 14.62 37.38 16.147C37.38 17.674 37.676 18.867 38.484 19.721C39.291 20.577 40.354 21.004 41.677 21.004C42.999 21.004 44.062 20.576 44.87 19.721C45.677 18.867 46.08 17.674 46.08 16.147ZM59.584 18.492H61.908C61.598 19.705 60.966 20.756 60.013 21.644C59.059 22.532 57.693 22.976 55.915 22.976C54.577 22.976 53.4 22.698 52.38 22.141C51.3752 21.599 50.5539 20.7711 50.02 19.762C49.464 18.733 49.187 17.52 49.187 16.125C49.187 14.731 49.457 13.518 49.995 12.489C50.532 11.459 51.287 10.666 52.258 10.109C53.228 9.553 54.365 9.275 55.67 9.275C56.975 9.275 58.055 9.549 58.96 10.097C59.866 10.644 60.542 11.372 60.99 12.277C61.44 13.182 61.663 14.174 61.663 15.253V16.748H51.512C51.592 18.043 52.022 19.074 52.795 19.838C53.57 20.6 54.61 20.984 55.915 20.984C56.975 20.984 57.787 20.764 58.349 20.324C58.912 19.884 59.323 19.274 59.584 18.492ZM51.536 14.881H59.218C59.218 13.751 58.933 12.867 58.362 12.227C57.791 11.588 56.894 11.267 55.672 11.267C54.53 11.267 53.596 11.579 52.871 12.201C52.146 12.824 51.701 13.718 51.538 14.879L51.536 14.881ZM86.404 22.603H88.605V4.668H86.404V22.605V22.603ZM116.952 8.237H119.523V5.433H116.952V8.237ZM126.023 20.674C125.623 20.714 125.382 20.736 125.301 20.736C125.252 20.7386 125.202 20.731 125.156 20.7138C125.109 20.6966 125.067 20.6702 125.031 20.636C124.997 20.5989 124.971 20.5556 124.954 20.5083C124.938 20.4611 124.93 20.411 124.933 20.361C124.933 20.279 124.954 20.033 124.995 19.627C125.035 19.22 125.056 18.592 125.056 17.747V11.549H128.196L127.578 9.651H125.058V6.162H122.856V9.649H120.462V11.547H122.856V18.367C122.856 19.796 123.199 20.859 123.884 21.557C124.569 22.254 125.613 22.603 127.016 22.603H128.729V20.611H127.872C127.04 20.611 126.424 20.633 126.025 20.674H126.023ZM138.905 9.649L135.26 20.519C135.211 20.652 135.134 20.827 134.884 20.827C134.633 20.827 134.556 20.652 134.507 20.518L130.862 9.649H128.617L132.838 22.603H134.33C134.428 22.603 134.502 22.613 134.551 22.628C134.6 22.644 134.64 22.685 134.674 22.753C134.738 22.853 134.729 23.003 134.649 23.201L133.964 25.093C133.866 25.343 133.679 25.468 133.402 25.468C133.304 25.468 133.076 25.446 132.717 25.405C132.254 25.3588 131.788 25.3381 131.323 25.343H129.536V27.335H131.885C133.255 27.335 134.08 27.098 134.789 26.625C135.498 26.153 136.049 25.318 136.441 24.121L141 10.145V9.647H138.905V9.649ZM109.76 14.483L106.311 9.649H103.889V10.147L108.022 15.753L102.983 22.106V22.603H105.455L109.467 17.397L113.21 22.603H115.584V22.106L111.205 16.127L115.952 10.174V9.651H113.48L109.762 14.485L109.76 14.483ZM117.187 22.603H119.388V9.651H117.187V22.605V22.603ZM103.083 18.493C102.773 19.705 102.141 20.756 101.188 21.643C100.234 22.532 98.867 22.976 97.09 22.976C95.751 22.976 94.574 22.698 93.555 22.141C92.5499 21.5992 91.7282 20.7712 91.194 19.762C90.639 18.733 90.362 17.52 90.362 16.125C90.362 14.731 90.632 13.518 91.17 12.489C91.707 11.459 92.462 10.666 93.432 10.109C94.403 9.553 95.54 9.275 96.844 9.275C98.149 9.275 99.23 9.549 100.135 10.097C101.041 10.644 101.717 11.372 102.165 12.277C102.614 13.182 102.838 14.174 102.838 15.253V16.748H92.686C92.767 18.043 93.196 19.074 93.97 19.838C94.744 20.6 95.785 20.984 97.09 20.984C98.149 20.984 98.962 20.764 99.524 20.324C100.086 19.884 100.498 19.274 100.759 18.492L103.083 18.493ZM92.711 14.881H100.393C100.393 13.751 100.107 12.867 99.536 12.227C98.965 11.588 98.069 11.267 96.846 11.267C95.704 11.267 94.77 11.579 94.045 12.201C93.32 12.824 92.875 13.718 92.713 14.879L92.711 14.881ZM23.749 0L14.366 8.84V0.378H12.848V8.592L3.729 0V9.579H0V23.38H3.74V32L12.848 23.796V31.814H14.366V23.805L23.464 32V23.493H27.259V9.692H23.749V0ZM15.656 11.225H25.741V21.96H23.464V18.479L15.656 11.225ZM21.946 19.255V28.578L14.366 21.75V12.215L21.946 19.255ZM11.67 9.58H5.247V3.528L11.67 9.58ZM11.66 11.113L3.738 18.47V21.848H1.518V11.112H11.66V11.113ZM5.257 19.152L12.837 12.111V21.751L5.257 28.579V19.152ZM22.231 3.528V9.58H15.808L22.231 3.528Z" fill="#7D7D7D"/>
</svg>
