<svg width="105" height="28" viewBox="0 0 105 28" fill="none" xmlns="http://www.w3.org/2000/svg">
<path d="M7.249 9.464C4.75 9.464 3.524 11.671 3.524 14.618V22.003H0V6.419H3.462V10.462H3.522C4.262 7.976 5.735 5.967 8.007 5.967C9.606 5.967 10.28 6.527 10.28 6.527L8.69 9.737C8.69 9.737 8.183 9.464 7.249 9.464ZM49.845 11.604V22H46.413V12.87C46.413 10.248 45.593 8.86 43.497 8.86C41.327 8.86 40.277 10.616 40.277 13.984V22H36.875V12.869C36.875 10.349 36.065 8.859 33.99 8.859C31.622 8.859 30.71 10.939 30.71 13.983V22H27.248V6.419H30.71V9.948H30.741C31.281 7.505 32.752 5.998 35.236 5.998C37.699 5.998 39.304 7.325 39.913 9.677C40.493 7.413 42.036 5.997 44.408 5.997C47.718 5.997 49.846 8.077 49.846 11.603L49.845 11.604ZM17.205 5.967C14.02 5.967 11.935 7.467 10.985 10.173L13.917 11.242C14.452 9.609 15.567 8.679 17.267 8.679C19.181 8.679 20.305 9.524 20.305 10.819C20.305 12.145 19.41 12.422 17.389 12.749C15.141 13.112 9.794 13.231 9.794 17.752C9.794 20.4 12.004 22.393 15.323 22.393C17.818 22.393 19.517 21.371 20.303 19.469H20.334V22H23.767V12.416C23.765 8.223 21.66 5.967 17.205 5.967ZM20.395 14.667C20.395 17.934 18.781 20.033 16.203 20.033C14.38 20.033 13.287 19.007 13.287 17.529C13.287 16.143 14.411 15.18 16.567 14.784C18.773 14.378 19.884 13.876 20.394 12.674V14.666L20.395 14.667ZM62.056 5.997C59.43 5.997 57.696 7.444 56.953 9.617V6.419H53.307V28H56.922V18.804H56.952C57.757 21.158 59.432 22.453 62.056 22.453C66.216 22.453 69.194 19.017 69.194 14.163C69.192 9.343 66.216 5.997 62.056 5.997ZM61.159 19.56C58.277 19.56 56.679 17.465 56.679 14.21C56.679 10.955 58.467 8.86 61.159 8.86C63.849 8.86 65.639 11.057 65.639 14.21C65.639 17.365 63.851 19.56 61.159 19.56ZM105 21.93V22.028L90.892 22.033V21.931C92.927 20.779 94.331 19.606 95.594 18.381H101.387L105 21.93ZM101.504 3.516L97.928 0H97.825C97.825 0 97.885 6.552 91.881 12.51C86.006 18.342 79.097 18.356 79.097 18.356V18.458L82.74 22.035C82.74 22.035 89.548 22.102 95.562 16.189C101.555 10.297 101.504 3.516 101.504 3.516Z" fill="#7D7D7D"/>
</svg>
