<svg width="128" height="33" viewBox="0 0 128 33" fill="none" xmlns="http://www.w3.org/2000/svg">
<path fill-rule="evenodd" clip-rule="evenodd" d="M8.292 21.307V24.75L0 16.5L1.731 14.777L8.292 21.307ZM11.752 24.75H8.292L16.583 33L18.315 31.277L11.752 24.75ZM31.432 18.223L33.162 16.5L16.58 0L14.853 1.727L21.413 8.254H17.449L12.869 3.707L11.139 5.43L13.986 8.263H11.996V21.07H24.867V19.09L27.715 21.924L29.447 20.201L24.867 15.645V11.7L31.432 18.223ZM9.155 7.396L7.42 9.12L9.278 10.968L11.009 9.245L9.156 7.397L9.155 7.396ZM23.881 22.048L22.151 23.771L24.007 25.619L25.739 23.896L23.881 22.048ZM5.442 11.09L3.71 12.813L8.29 17.369V13.924L5.442 11.09ZM19.177 24.757H15.717L20.296 29.313L22.027 27.59L19.177 24.757Z" fill="#7D7D7D"/>
<path d="M125.74 24.73C124.624 24.73 123.75 24.429 123.127 23.824C122.503 23.219 122.191 22.378 122.191 21.314V14.714H120.188V12.243H122.202L122.561 8.94305H124.92V12.243H128V14.718H124.92V20.955C124.913 21.2966 125.041 21.6271 125.276 21.875C125.396 22.0021 125.543 22.1018 125.705 22.1673C125.867 22.2329 126.041 22.2628 126.216 22.255H128V24.73H125.74ZM113.691 24.963C112.202 24.963 111.005 24.61 110.098 23.903C109.198 23.204 108.581 22.2044 108.358 21.087H111.319C111.448 21.516 111.736 21.88 112.123 22.107C112.599 22.3807 113.143 22.5145 113.691 22.493C115.27 22.493 116.064 22.053 116.064 21.203C116.064 20.78 115.815 20.456 115.319 20.233C114.741 19.9869 114.138 19.8077 113.519 19.699C112.803 19.5607 112.093 19.3871 111.394 19.179C110.682 18.9703 110.049 18.5522 109.578 17.979C109.085 17.392 108.837 16.62 108.835 15.664C108.828 15.161 108.937 14.6632 109.155 14.2094C109.372 13.7556 109.691 13.3581 110.087 13.048C110.924 12.353 112.085 12.006 113.57 12.008C115.054 12.008 116.233 12.338 117.107 12.998C117.976 13.65 118.573 14.5991 118.786 15.664H115.82C115.504 14.883 114.759 14.484 113.578 14.483C112.311 14.483 111.679 14.876 111.679 15.663C111.682 15.8439 111.732 16.0208 111.826 16.1755C111.92 16.3302 112.053 16.4571 112.212 16.543C112.618 16.7874 113.07 16.9479 113.539 17.015C114.126 17.115 114.707 17.248 115.279 17.415C115.872 17.584 116.453 17.791 117.019 18.035C117.57 18.2829 118.037 18.6869 118.361 19.197C118.736 19.795 118.923 20.4917 118.898 21.197C118.91 21.7221 118.796 22.2423 118.565 22.714C118.334 23.1867 117.994 23.5974 117.572 23.912C116.69 24.612 115.397 24.962 113.691 24.963ZM104.862 13.257C103.95 12.44 102.672 12.032 101.028 12.032C99.7181 12.032 98.6191 12.382 97.7311 13.085C96.8561 13.7687 96.2377 14.7279 95.9761 15.807H98.7751C98.9171 15.399 99.1891 15.047 99.5491 14.806C99.9864 14.5144 100.505 14.3688 101.03 14.39C101.8 14.39 102.406 14.588 102.85 14.98C103.075 15.1885 103.251 15.444 103.366 15.7284C103.48 16.0128 103.531 16.3189 103.513 16.625V17.221H100.307C98.8331 17.221 97.6751 17.591 96.8331 18.332C96.4318 18.6735 96.1112 19.0997 95.8942 19.5798C95.6772 20.06 95.5693 20.5822 95.5781 21.109C95.5628 21.63 95.6595 22.1482 95.8615 22.6286C96.0635 23.109 96.3661 23.5405 96.7491 23.894C97.5281 24.627 98.5601 24.994 99.8451 24.994C100.641 25.0123 101.429 24.83 102.136 24.464C102.703 24.1882 103.184 23.7612 103.524 23.23H103.639L103.872 24.77H106.24V16.63C106.235 15.201 105.776 14.077 104.862 13.257ZM103.516 19.927C103.532 20.2978 103.465 20.6674 103.322 21.0097C103.179 21.3519 102.961 21.6583 102.686 21.907C102.137 22.393 101.386 22.637 100.435 22.637C99.7431 22.637 99.2131 22.479 98.8481 22.171C98.6715 22.0278 98.5299 21.8462 98.434 21.64C98.3382 21.4338 98.2907 21.2084 98.2951 20.981C98.2951 19.881 99.0181 19.335 100.435 19.335H103.516V19.927ZM88.4731 24.99C86.6771 24.99 85.2411 24.416 84.1661 23.27C83.0921 22.122 82.5541 20.535 82.5521 18.508C82.5521 16.486 83.0881 14.9 84.1601 13.752C85.2311 12.604 86.6691 12.03 88.4731 12.032C89.9391 12.032 91.1531 12.42 92.1171 13.198C93.0619 13.9472 93.7361 14.9845 94.0371 16.152H91.3211C91.0532 15.635 90.643 15.2053 90.1389 14.9137C89.6348 14.622 89.0579 14.4806 88.4761 14.506C88.0342 14.4906 87.5946 14.5769 87.1913 14.7583C86.788 14.9396 86.4318 15.2112 86.1501 15.552C85.5601 16.252 85.2651 17.237 85.2651 18.508C85.2651 19.78 85.5601 20.766 86.1501 21.465C86.4306 21.8075 86.7866 22.0804 87.1901 22.2626C87.5935 22.4447 88.0337 22.5311 88.4761 22.515C89.058 22.5396 89.6348 22.3975 90.1387 22.1056C90.6427 21.8137 91.0529 21.384 91.3211 20.867H94.0371C93.7373 22.036 93.0629 23.0746 92.1171 23.824C91.1551 24.601 89.9401 24.99 88.4731 24.99ZM72.4551 29.476L74.3501 24.759L69.2621 12.272H72.2221L75.6561 21.109H75.7711L79.2101 12.272H82.1701L75.2981 29.476H72.4551ZM66.7041 13.257C65.7911 12.44 64.5131 12.032 62.8691 12.032C61.5591 12.032 60.4571 12.382 59.5731 13.085C58.6973 13.7682 58.0784 14.7275 57.8171 15.807H60.6171C60.7571 15.398 61.0291 15.047 61.3901 14.806C61.8275 14.5137 62.3465 14.368 62.8721 14.39C63.6411 14.39 64.2481 14.587 64.6921 14.98C64.9173 15.1882 65.0936 15.4437 65.2083 15.7281C65.3229 16.0126 65.3731 16.3189 65.3551 16.625V17.221H62.1481C60.6741 17.221 59.5161 17.591 58.6751 18.332C58.2732 18.6731 57.9521 19.0991 57.7349 19.5793C57.5177 20.0596 57.4098 20.5821 57.4191 21.109C57.4031 21.6297 57.499 22.1478 57.7004 22.6282C57.9017 23.1086 58.2037 23.5403 58.5861 23.894C59.3651 24.627 60.3961 24.994 61.6821 24.994C62.4778 25.0122 63.2653 24.83 63.9721 24.464C64.5401 24.1884 65.0211 23.7614 65.3621 23.23H65.4761L65.7081 24.77H68.0721V16.63C68.0721 15.201 67.6161 14.077 66.7041 13.257ZM65.3531 19.927C65.3698 20.2979 65.304 20.6679 65.1605 21.0103C65.0169 21.3527 64.7993 21.6589 64.5231 21.907C63.9751 22.394 63.2251 22.637 62.2731 22.637C61.5801 22.637 61.0471 22.481 60.6851 22.171C60.5084 22.0279 60.3668 21.8462 60.2709 21.64C60.1751 21.4338 60.1276 21.2084 60.1321 20.981C60.1391 19.885 60.8521 19.337 62.2721 19.335H65.3521L65.3531 19.927ZM51.3431 18.509C51.7651 18.397 52.1731 18.237 52.5591 18.034C53.0093 17.7886 53.4306 17.4934 53.8151 17.154C54.279 16.7292 54.6372 16.2019 54.8611 15.614C55.1301 14.924 55.2621 14.189 55.2511 13.449C55.2511 11.879 54.7481 10.619 53.7401 9.67405C52.7311 8.72805 51.4201 8.25605 49.8041 8.25905H42.9341V24.759H45.8941V18.637H48.1411L52.4081 24.759H55.7251L51.3431 18.509ZM45.8941 16.027V10.857H49.5631C50.4031 10.857 51.0661 11.084 51.5531 11.537C52.0391 11.99 52.2831 12.625 52.2871 13.442C52.2871 14.259 52.0411 14.896 51.5481 15.352C51.0057 15.8212 50.3033 16.063 49.5871 16.027H45.8941Z" fill="#7D7D7D"/>
</svg>
