<svg width="114" height="22" viewBox="0 0 114 22" fill="none" xmlns="http://www.w3.org/2000/svg">
<path d="M48.54 21.539H44.385L35.306 12.308H33.614V21.538H30.536V0H40.846C45.186 0 47.771 2.308 47.771 6.154C47.771 10 45.186 12.308 40.846 12.308H39.307L48.54 21.538V21.539ZM44.693 6.154C44.693 3.969 43.463 2.615 40.846 2.615H33.614V9.692H40.846C43.462 9.692 44.693 8.338 44.693 6.154ZM56.42 22C51.496 22 48.418 18.339 48.418 13.538C48.418 8.738 51.496 5.077 56.266 5.077C60.113 5.077 62.422 7.231 63.437 10.431C63.807 11.631 63.96 12.954 63.96 14.308V14.615H51.373C51.465 17.2 53.373 19.692 56.42 19.692C59.036 19.692 60.237 18.185 60.483 17.077H63.653C62.914 19.692 60.452 22 56.42 22ZM51.373 12.308H61.006C60.852 9.538 59.375 7.385 56.266 7.385C53.158 7.385 51.466 9.692 51.373 12.308ZM64.113 8V5.54H67.96V1.847H70.914V5.54H75.069V8H70.914V17.693C70.914 18.77 71.222 19.139 72.299 19.139H75.069V21.539H71.684C68.883 21.539 67.96 20.154 67.96 17.693V8H64.113ZM83.563 5.077C88.488 5.077 91.719 8.738 91.719 13.538C91.719 18.338 88.488 22 83.563 22C78.639 22 75.408 18.339 75.408 13.538C75.408 8.738 78.639 5.077 83.563 5.077ZM83.563 7.538C80.209 7.538 78.362 10.308 78.362 13.538C78.362 16.769 80.209 19.538 83.563 19.538C86.918 19.538 88.765 16.769 88.765 13.538C88.765 10.308 86.918 7.538 83.563 7.538ZM101.18 5.077C106.105 5.077 109.336 8.738 109.336 13.538C109.336 18.338 106.105 22 101.18 22C96.256 22 93.025 18.339 93.025 13.538C93.025 8.738 96.256 5.077 101.18 5.077ZM101.18 7.538C97.826 7.538 95.979 10.308 95.979 13.538C95.979 16.769 97.826 19.538 101.18 19.538C104.535 19.538 106.382 16.769 106.382 13.538C106.382 10.308 104.535 7.538 101.18 7.538ZM114 0V21.539H111.045V0H114ZM13.534 1.01C13.534 0.452 13.08 0 12.519 0H1.015C0.454999 0 0 0.452 0 1.01V5.72C0 6.278 0.454999 6.73 1.015 6.73H12.519C13.079 6.73 13.534 7.182 13.534 7.74V9.086C13.534 9.644 13.08 10.096 12.519 10.096H5.075C4.515 10.096 4.06 10.548 4.06 11.106V15.816C4.06 16.374 4.515 16.826 5.075 16.826H12.519C13.079 16.826 13.534 17.278 13.534 17.836V20.528C13.534 21.085 13.988 21.538 14.549 21.538H19.286C19.846 21.538 20.301 21.085 20.301 20.528V15.816C20.301 15.259 19.846 14.806 19.286 14.806H14.549C13.989 14.806 13.534 14.355 13.534 13.797V12.451C13.534 11.894 13.988 11.441 14.549 11.441H19.286C19.846 11.441 20.301 10.99 20.301 10.432V5.721C20.301 5.163 19.846 4.711 19.286 4.711H14.549C13.989 4.711 13.534 4.259 13.534 3.701V1.01Z" fill="#7D7D7D"/>
</svg>
