<svg width="156" height="32" viewBox="0 0 156 32" fill="none" xmlns="http://www.w3.org/2000/svg">
<path d="M16.382 31.5341C24.934 31.4071 31.827 24.4571 31.827 15.9011C31.827 7.26609 24.805 0.26709 16.143 0.26709C7.48101 0.26709 0.458008 7.26709 0.458008 15.9011C0.458008 24.5371 7.48101 31.5361 16.143 31.5361H16.246C16.292 31.5361 16.336 31.5361 16.382 31.5341ZM3.18401 15.9011C3.18401 15.4911 3.20401 15.0841 3.24101 14.6831C3.41201 14.5031 3.56901 14.3301 3.71901 14.1651L3.72101 14.1631C4.27501 13.5531 4.73501 13.0461 5.48301 12.6591C6.05001 12.3661 6.84001 12.1311 8.01701 12.1671C7.8572 13.415 7.7777 14.672 7.77901 15.9301C7.77901 20.0291 8.60401 23.8061 10.002 26.6101C10.16 26.9261 10.328 27.2361 10.507 27.5361C6.17301 25.4461 3.18401 21.0221 3.18401 15.9011ZM8.50901 9.47109C6.91601 9.36409 5.63601 9.60509 4.57101 10.0811C5.86817 7.52932 7.97177 5.4774 10.555 4.24409C10.3571 4.57246 10.1726 4.90874 10.002 5.25209C9.38601 6.48709 8.88101 7.91209 8.50901 9.47109ZM12.443 6.46109C13.18 4.98409 13.993 4.04109 14.78 3.52809V11.7531C13.7336 10.8928 12.5133 10.2691 11.203 9.92509C11.526 8.62209 11.948 7.45309 12.443 6.46109ZM10.709 12.6111C12.564 13.1691 13.721 14.3031 14.779 15.7581V28.3331C13.994 27.8201 13.179 26.8771 12.443 25.3991C11.27 23.0461 10.505 19.7001 10.505 15.9301C10.505 14.7791 10.576 13.6681 10.709 12.6111ZM17.506 19.7471C18.416 20.9021 19.538 21.9921 21.076 22.7271C20.8137 23.6465 20.47 24.5407 20.049 25.3991C19.247 27.0071 18.355 27.9811 17.506 28.4591V19.7471ZM18.157 15.8951L18.147 15.8801L17.883 15.4741C17.7587 15.2832 17.6331 15.0932 17.506 14.9041V3.40309C18.355 3.88009 19.247 4.85509 20.049 6.46209C21.222 8.81509 21.987 12.1611 21.987 15.9301C21.987 17.3461 21.879 18.7001 21.683 19.9671C20.219 19.0671 19.289 17.6371 18.157 15.8951ZM24.283 20.9481C24.563 19.3681 24.713 17.6781 24.713 15.9301C24.713 11.8321 23.888 8.05509 22.49 5.25209C22.3439 4.95883 22.1878 4.67066 22.022 4.38809C26.224 6.52409 29.102 10.8781 29.102 15.9011C29.102 16.9161 28.984 17.9031 28.762 18.8491L28.726 18.8391C28.6736 19.0039 28.6084 19.1644 28.531 19.3191C28.3327 19.7218 28.0552 20.0803 27.715 20.3731C27.173 20.8301 26.165 21.3421 24.283 20.9481ZM22.49 26.6101C22.944 25.7001 23.337 24.6881 23.662 23.5941C24.696 23.8161 25.618 23.8541 26.434 23.7531C25.2653 25.2729 23.7751 26.5155 22.07 27.3921C22.218 27.1358 22.358 26.875 22.49 26.6101ZM48.137 17.8101L50.79 23.6161H53.151L60.351 7.81909H57.037L51.99 19.5871H51.933L46.924 7.81909H43.572L46.714 14.6941L44.334 20.2271H44.296L39.268 7.81909H35.935L43.153 23.6161H45.496L48.137 17.8101ZM62.997 24.1051C64.94 24.1051 66.559 23.2391 67.359 21.3951H67.397V21.8651C67.397 23.0321 68.158 23.7101 69.53 23.7101H71.491V21.3751H71.015C70.405 21.3751 70.177 21.1501 70.177 20.5471V15.2191C70.177 12.7151 68.635 10.9071 64.864 10.9071C61.094 10.9071 59.341 12.6391 59.151 15.3131H62.159C62.255 13.9391 63.283 13.1671 64.902 13.1671C66.254 13.1671 67.302 13.7131 67.302 14.8421C67.302 15.7081 66.73 16.1981 65.473 16.1981H63.436C60.941 16.1981 58.656 17.2901 58.656 20.1331C58.656 22.7311 60.56 24.1051 62.997 24.1051ZM67.301 18.1751C67.301 20.7551 65.607 21.8081 63.892 21.8081L63.912 21.8281C62.407 21.8281 61.759 21.0181 61.759 20.0381C61.759 19.0601 62.407 18.3071 63.912 18.2681L64.845 18.2311C66.14 18.1751 66.883 17.7981 67.263 17.0261H67.301V18.1751ZM73.453 20.3591V13.6371H71.034V11.3031H73.453V7.91309H76.347V11.3031H80.137V13.6371H76.347V19.9451C76.347 20.9991 76.9 21.4131 77.852 21.4131H80.194V23.7481H76.862C74.615 23.7481 73.434 22.6371 73.434 20.3781L73.453 20.3591ZM80.898 17.5161C80.898 13.3921 83.488 10.9261 87.107 10.9261C90.725 10.9261 93.144 13.0541 93.144 17.0451V18.3251H83.964C84.06 20.4531 85.259 21.8461 87.183 21.8461C88.573 21.8461 89.621 21.0931 90.02 19.9061H92.991C92.439 22.3921 90.249 24.1061 87.145 24.1061C83.431 24.1061 80.917 21.6201 80.917 17.5161H80.898ZM87.183 13.1861C85.221 13.1861 84.173 14.5411 83.983 16.2731H90.249C90.249 14.4661 89.144 13.1851 87.183 13.1851V13.1861ZM95.144 11.3021H97.962V13.2601H98C98.591 12.0181 99.391 11.3021 101.067 11.3021H102.285V13.6371H100.552C98.819 13.6371 98.02 14.5591 98.02 16.5931V23.7291H95.144V11.3021ZM102.971 19.6051H105.942C106.018 21.1681 107.008 21.8461 108.494 21.8461C109.979 21.8461 110.893 21.1311 110.893 20.0201C110.893 19.0401 110.284 18.4571 108.722 18.4571H107.351C104.723 18.4571 103.199 17.0271 103.199 14.9371C103.199 12.5641 105.142 10.9261 108.436 10.9261C111.731 10.9261 113.674 12.6961 113.75 15.3321H110.798C110.722 13.9381 109.96 13.1851 108.417 13.1851C107.046 13.1851 106.208 13.8251 106.208 14.8421C106.208 15.7651 106.913 16.2171 108.075 16.2171H109.579C112.588 16.2171 113.959 17.8921 113.959 19.9261C113.959 22.3921 111.998 24.1241 108.494 24.1241C104.99 24.1241 103.028 22.3541 102.952 19.6241L102.971 19.6061V19.6051ZM115.96 7.95109H118.835V11.1511C118.835 11.7171 118.835 12.1501 118.797 13.2041H118.835C119.502 11.8491 120.797 10.9261 122.606 10.9261C125.177 10.9261 126.948 12.6961 126.948 15.7081V23.7281H124.073V16.2731C124.073 14.0511 123.12 13.2041 121.692 13.2041C120.264 13.2041 118.835 14.1271 118.835 16.6121V23.7291H115.96V7.95109ZM128.909 17.5161C128.909 13.3921 131.48 10.9261 135.118 10.9261C138.755 10.9261 141.155 13.0541 141.155 17.0451V18.3251H131.975C132.071 20.4531 133.27 21.8461 135.194 21.8461C136.584 21.8461 137.632 21.0931 138.031 19.9061H141.002C140.45 22.3921 138.26 24.1061 135.156 24.1061C131.423 24.1061 128.928 21.6201 128.928 17.5161H128.909ZM135.194 13.1861C133.232 13.1861 132.185 14.5411 131.994 16.2731H138.26C138.26 14.4661 137.155 13.1851 135.194 13.1851V13.1861ZM142.583 17.5161V17.5341C142.583 21.8461 145.249 24.1241 148.182 24.1241C150.106 24.1241 151.629 23.1451 152.391 21.5641H152.429C152.41 22.0341 152.41 22.4481 152.41 22.9001V23.7291H155.267V7.95009H152.391V12.2241C152.391 12.6761 152.391 13.0521 152.429 13.4851H152.391C151.629 11.9041 150.106 10.9251 148.182 10.9251C145.249 10.9251 142.583 13.2031 142.583 17.5151V17.5161ZM152.391 17.5161C152.391 20.1331 151.134 21.8461 149.039 21.8461C146.925 21.8461 145.668 20.1331 145.668 17.5161C145.668 14.8991 146.944 13.1861 149.039 13.1861C151.134 13.1861 152.391 14.8981 152.391 17.5161Z" fill="#7D7D7D"/>
</svg>
