<svg width="64" height="62" viewBox="0 0 64 62" fill="none" xmlns="http://www.w3.org/2000/svg">
<g id="Group 1">
<path id="Vector" d="M62.7291 0.767456H18.387C16.8567 0.767456 15.6162 2.00799 15.6162 3.53828V15.8837L41.3139 23.4419L65.4999 15.8837V3.53828C65.4999 2.00799 64.2594 0.767456 62.7291 0.767456Z" fill="#41A5EE"/>
<path id="Vector_2" d="M65.4999 15.8838H15.6162V31.0001L41.3139 35.5349L65.4999 31.0001V15.8838Z" fill="#2B7CD3"/>
<path id="Vector_3" d="M15.6162 31V46.1163L39.8023 49.1395L65.4999 46.1163V31H15.6162Z" fill="#185ABD"/>
<path id="Vector_4" d="M18.387 61.2326H62.7291C64.2594 61.2326 65.5 59.9921 65.5 58.4618V46.1163H15.6162V58.4618C15.6162 59.9921 16.8567 61.2326 18.387 61.2326Z" fill="#103F91"/>
<path id="Vector_5" opacity="0.1" d="M34.0082 12.8605H15.6162V50.6512H34.0082C35.5364 50.6462 36.774 49.4086 36.779 47.8803V15.6313C36.774 14.1031 35.5364 12.8654 34.0082 12.8605Z" fill="black"/>
<path id="Vector_6" opacity="0.2" d="M32.4965 14.3721H15.6162V52.1628H32.4965C34.0248 52.1578 35.2624 50.9202 35.2674 49.3919V17.1429C35.2624 15.6147 34.0248 14.377 32.4965 14.3721Z" fill="black"/>
<path id="Vector_7" opacity="0.2" d="M32.4965 14.3721H15.6162V49.1395H32.4965C34.0248 49.1345 35.2624 47.8969 35.2674 46.3687V17.1429C35.2624 15.6147 34.0248 14.377 32.4965 14.3721Z" fill="black"/>
<path id="Vector_8" opacity="0.2" d="M30.9849 14.3721H15.6162V49.1395H30.9849C32.5131 49.1345 33.7508 47.8969 33.7557 46.3687V17.1429C33.7508 15.6147 32.5131 14.377 30.9849 14.3721Z" fill="black"/>
<path id="Vector_9" d="M3.27082 14.3721H30.985C32.5153 14.3721 33.7558 15.6126 33.7558 17.1429V44.8571C33.7558 46.3874 32.5153 47.6279 30.985 47.6279H3.27082C1.74054 47.6279 0.5 46.3874 0.5 44.8571V17.1429C0.5 15.6126 1.74054 14.3721 3.27082 14.3721Z" fill="url(#paint0_linear_54_3776)"/>
<path id="Vector_10" d="M11.8704 35.6226C11.9248 36.0503 11.9611 36.4222 11.9777 36.7412H12.0412C12.0654 36.4388 12.1157 36.0745 12.1923 35.6483C12.2689 35.222 12.338 34.8617 12.3994 34.5675L15.3139 21.9937H19.0823L22.1056 34.3785C22.2813 35.1486 22.407 35.9292 22.482 36.7154H22.5319C22.5883 35.9537 22.6933 35.1964 22.8463 34.448L25.2574 21.9877H28.6872L24.4517 40.0063H20.4443L17.5722 28.0735C17.4891 27.7303 17.3939 27.2814 17.2896 26.7296C17.1853 26.1779 17.1203 25.7743 17.0946 25.5203H17.0447C17.0114 25.8136 16.9464 26.2489 16.8497 26.8264C16.7529 27.4038 16.6753 27.8311 16.6169 28.1082L13.9171 40.0032H9.84173L5.5835 21.9937H9.07534L11.701 34.5931C11.76 34.8516 11.816 35.1963 11.8704 35.6226Z" fill="white"/>
</g>
<defs>
<linearGradient id="paint0_linear_54_3776" x1="6.27721" y1="12.207" x2="27.9786" y2="49.7929" gradientUnits="userSpaceOnUse">
<stop stop-color="#2368C4"/>
<stop offset="0.5" stop-color="#1A5DBE"/>
<stop offset="1" stop-color="#1146AC"/>
</linearGradient>
</defs>
</svg>
