<svg width="289" height="49" viewBox="0 0 289 49" fill="none" xmlns="http://www.w3.org/2000/svg">
<path d="M44.5 38.5H26.5C18.958 38.5 15.186 38.5 12.844 36.156C10.502 33.812 10.5 30.042 10.5 22.5V4.5" stroke="#00009D" stroke-width="3" stroke-linecap="round"/>
<path opacity="0.5" d="M4.5 10.5H22.5C30.042 10.5 33.814 10.5 36.156 12.844C38.498 15.188 38.5 18.958 38.5 26.5V44.5" stroke="#00009D" stroke-width="3" stroke-linecap="round"/>
<path d="M90.5 28.5L94.5 24.5M94.5 24.5L90.5 20.5M94.5 24.5H74.5" stroke="#00009D" stroke-opacity="0.5" stroke-width="2" stroke-linecap="round" stroke-linejoin="round"/>
<path fill-rule="evenodd" clip-rule="evenodd" d="M130.5 3C130.898 3 131.279 3.15804 131.561 3.43934C131.842 3.72064 132 4.10218 132 4.5V22.5C132 26.314 132.004 29.024 132.28 31.08C132.55 33.09 133.058 34.25 133.904 35.096C134.75 35.942 135.91 36.45 137.922 36.72C139.978 36.996 142.686 37 146.5 37H164.5C164.898 37 165.279 37.158 165.561 37.4393C165.842 37.7206 166 38.1022 166 38.5C166 38.8978 165.842 39.2794 165.561 39.5607C165.279 39.842 164.898 40 164.5 40H146.388C142.712 40 139.8 40 137.522 39.694C135.178 39.378 133.28 38.714 131.782 37.218C130.286 35.72 129.622 33.822 129.306 31.478C129 29.198 129 26.288 129 22.612V4.5C129 4.10218 129.158 3.72064 129.439 3.43934C129.721 3.15804 130.102 3 130.5 3Z" fill="#00009D"/>
<path opacity="0.5" d="M124.5 12H129V9H124.5C124.102 9 123.721 9.15804 123.439 9.43934C123.158 9.72064 123 10.1022 123 10.5C123 10.8978 123.158 11.2794 123.439 11.5607C123.721 11.842 124.102 12 124.5 12ZM160 44.5V40H157V44.5C157 44.8978 157.158 45.2794 157.439 45.5607C157.721 45.842 158.102 46 158.5 46C158.898 46 159.279 45.842 159.561 45.5607C159.842 45.2794 160 44.8978 160 44.5ZM151.08 12.28C149.024 12.004 146.314 12 142.5 12H136.5C136.102 12 135.721 11.842 135.439 11.5607C135.158 11.2794 135 10.8978 135 10.5C135 10.1022 135.158 9.72064 135.439 9.43934C135.721 9.15804 136.102 9 136.5 9H142.612C146.288 9 149.2 9 151.478 9.306C153.822 9.622 155.72 10.286 157.218 11.782C158.714 13.28 159.378 15.178 159.694 17.522C160 19.802 160 22.712 160 26.388V32.5C160 32.8978 159.842 33.2794 159.561 33.5607C159.279 33.842 158.898 34 158.5 34C158.102 34 157.721 33.842 157.439 33.5607C157.158 33.2794 157 32.8978 157 32.5V26.5C157 22.686 156.996 19.978 156.72 17.92C156.45 15.91 155.942 14.75 155.096 13.904C154.25 13.058 153.09 12.55 151.078 12.28" fill="#00009D"/>
<path d="M137.5 23.5001C137.5 20.6721 137.5 19.2581 138.38 18.3801C139.258 17.5001 140.672 17.5001 143.5 17.5001H145.5C148.328 17.5001 149.742 17.5001 150.62 18.3801C151.5 19.2581 151.5 20.6721 151.5 23.5001V25.5001C151.5 28.3281 151.5 29.7421 150.62 30.6201C149.742 31.5001 148.328 31.5001 145.5 31.5001H143.5C140.672 31.5001 139.258 31.5001 138.38 30.6201C137.5 29.7421 137.5 28.3281 137.5 25.5001V23.5001Z" fill="#00009D"/>
<path d="M210.5 28.5L214.5 24.5M214.5 24.5L210.5 20.5M214.5 24.5H194.5" stroke="#00009D" stroke-opacity="0.5" stroke-width="2" stroke-linecap="round" stroke-linejoin="round"/>
<path fill-rule="evenodd" clip-rule="evenodd" d="M246.844 6.844C244.5 9.186 244.5 12.958 244.5 20.5V28.5C244.5 36.042 244.5 39.814 246.844 42.156C249.188 44.498 252.958 44.5 260.5 44.5H268.5C276.042 44.5 279.814 44.5 282.156 42.156C284.498 39.812 284.5 36.042 284.5 28.5V20.5C284.5 12.958 284.5 9.186 282.156 6.844C279.812 4.502 276.042 4.5 268.5 4.5H260.5C252.958 4.5 249.186 4.5 246.844 6.844ZM258 12.5C258 12.1022 257.842 11.7206 257.561 11.4393C257.279 11.158 256.898 11 256.5 11C256.102 11 255.721 11.158 255.439 11.4393C255.158 11.7206 255 12.1022 255 12.5V15H252.5C252.102 15 251.721 15.158 251.439 15.4393C251.158 15.7206 251 16.1022 251 16.5C251 16.8978 251.158 17.2794 251.439 17.5607C251.721 17.842 252.102 18 252.5 18H255V24.604C255 26.402 255 27.9 255.16 29.088C255.328 30.344 255.7 31.478 256.61 32.388C257.522 33.3 258.656 33.672 259.91 33.84C261.1 34 262.6 34 264.396 34H271V36.5C271 36.8978 271.158 37.2794 271.439 37.5607C271.721 37.842 272.102 38 272.5 38C272.898 38 273.279 37.842 273.561 37.5607C273.842 37.2794 274 36.8978 274 36.5V34H276.5C276.898 34 277.279 33.842 277.561 33.5607C277.842 33.2794 278 32.8978 278 32.5C278 32.1022 277.842 31.7206 277.561 31.4393C277.279 31.158 276.898 31 276.5 31H264.5C262.572 31 261.276 30.996 260.31 30.868C259.388 30.742 258.992 30.528 258.732 30.268C258.472 30.008 258.258 29.612 258.132 28.688C258.004 27.724 258 26.428 258 24.5V12.5ZM264.5 18C266.428 18 267.724 18.004 268.69 18.134C269.612 18.258 270.008 18.472 270.268 18.734C270.528 18.996 270.742 19.388 270.868 20.31C270.996 21.276 271 22.572 271 24.5V27.44C271 27.8378 271.158 28.2194 271.439 28.5007C271.721 28.782 272.102 28.94 272.5 28.94C272.898 28.94 273.279 28.782 273.561 28.5007C273.842 28.2194 274 27.8378 274 27.44V24.396C274 22.598 274 21.1 273.84 19.912C273.672 18.656 273.3 17.522 272.388 16.612C271.478 15.7 270.344 15.328 269.088 15.16C267.9 15 266.4 15 264.604 15H261.558C261.16 15 260.779 15.158 260.497 15.4393C260.216 15.7206 260.058 16.1022 260.058 16.5C260.058 16.8978 260.216 17.2794 260.497 17.5607C260.779 17.842 261.16 18 261.558 18H264.5Z" fill="#00009D"/>
</svg>
