<?xml version="1.0" encoding="UTF-8"?>
<svg id="Layer_2" data-name="Layer 2" xmlns="http://www.w3.org/2000/svg" viewBox="0 0 2984.97 790.38">
  <defs>
    <style>
      .cls-1 {
        fill: #8b73ff;
      }

      .cls-1, .cls-2, .cls-3, .cls-4 {
        stroke-width: 0px;
      }

      .cls-2 {
        fill: #6c62ff;
      }

      .cls-3 {
        fill: #362cad;
      }

      .cls-4 {
        fill: #58cdfc;
      }
    </style>
  </defs>
  <g id="_Слой_1" data-name="Слой 1">
    <g>
      <g>
        <g>
          <path class="cls-3" d="m1012.93,29.9h0c24.8,0,48.03,12.18,62.14,32.58l235.74,340.85V29.9h113.5v492c0,41.72-33.82,75.54-75.54,75.54h0c-24.8,0-48.02-12.17-62.13-32.57l-235.75-340.85v373.42h-113.51V105.45c0-41.73,33.83-75.55,75.55-75.55Z"/>
          <path class="cls-3" d="m1882.14,177.99v223.21c0,108.35-87.84,196.19-196.19,196.19h0c-108.35,0-196.19-87.84-196.19-196.19v-223.21h106.94v223.21c0,49.29,39.96,89.25,89.25,89.25h0c49.29,0,89.25-39.96,89.25-89.25v-223.21h106.94Z"/>
          <path class="cls-3" d="m1952.08,177.96h106.93v63.33c32.9-43.59,78.14-69.91,133.25-69.91h15.63v110.21h-15.63c-85.54,0-133.25,45.24-133.25,115.98v199.87h-106.93V177.96Z"/>
          <path class="cls-3" d="m2258.73,177.96h106.92v63.33c32.9-43.59,78.14-69.91,133.24-69.91h15.63v110.21h-15.63c-85.54,0-133.24,45.24-133.24,115.98v199.87h-106.92V177.96Z"/>
          <path class="cls-3" d="m2536.71,387.7c0-125.02,88.01-219.62,204.8-219.62,55.94,0,102.82,22.21,136.54,59.22v-49.34h106.92v419.48h-106.92v-49.35c-33.72,37.02-80.6,59.22-136.54,59.22-116.79,0-204.8-94.59-204.8-219.61Zm341.34,0c0-65.8-49.35-115.98-115.98-115.98s-115.15,50.18-115.15,115.98,49.35,115.97,115.15,115.97,115.98-50.17,115.98-115.97Z"/>
        </g>
        <g>
          <path class="cls-3" d="m1952.08,652.09h23.85v57.52h67.74v-57.52h23.65v138.29h-23.65v-58.32h-67.74v58.32h-23.85v-138.29Z"/>
          <path class="cls-3" d="m2157.5,652.09h89.99v22.45h-66.14v35.07h59.53v22.45h-59.53v35.87h67.14v22.45h-90.99v-138.29Z"/>
          <path class="cls-3" d="m2371.93,652.09h28.26l54.51,138.29h-26.25l-11.22-29.46h-62.93l-11.22,29.46h-25.65l54.51-138.29Zm36.88,86.78l-23.05-60.73-23.05,60.73h46.09Z"/>
          <path class="cls-3" d="m2530.85,652.09h23.85v115.84h61.13v22.45h-84.98v-138.29Z"/>
          <path class="cls-3" d="m2726.05,674.54h-39.48v-22.45h102.61v22.45h-39.28v115.84h-23.85v-115.84Z"/>
          <path class="cls-3" d="m2869.73,652.09h23.85v57.52h67.74v-57.52h23.65v138.29h-23.65v-58.32h-67.74v58.32h-23.85v-138.29Z"/>
        </g>
      </g>
      <g>
        <path class="cls-1" d="m744.21,0v309.94l-162.5-184.58C600.51,53.22,666.19,0,744.21,0Z"/>
        <g>
          <path class="cls-4" d="m581.71,125.36c-3.62,13.59-5.55,27.97-5.55,42.69v141.89l-272.23-131.7c-29.56-14.38-63.75-12.46-91.61,4.87-27.74,17.44-44.28,47.45-44.28,80.29v63.87L0,245.96c1.02-15.85,3.4-31.37,7.25-46.43,16.08-65.34,56.85-122.41,115.62-159.22C164.99,13.93,213.23,0,262.49,0c39.97,0,78.59,8.83,114.83,26.38l204.4,98.97Z"/>
          <path class="cls-4" d="m162.5,511.85c-18.8,72.13-84.36,125.36-162.5,125.36V245.96l162.5,265.89Z"/>
        </g>
        <path class="cls-3" d="m744.21,315.66v75.59l-168.05-81.31v-141.89c0-14.72,1.92-29.1,5.55-42.69l62.06,30.06c61.43,29.75,100.44,92,100.44,160.25Z"/>
        <path class="cls-1" d="m744.21,391.24c-1.02,15.85-3.4,31.37-7.25,46.43-16.08,65.34-56.85,122.41-115.62,159.22-42.13,26.39-90.37,40.31-139.63,40.31-39.97,0-78.59-8.83-114.83-26.39l-204.4-98.97c3.62-13.59,5.55-27.97,5.55-42.69v-141.89l272.23,131.7c29.56,14.38,63.75,12.46,91.61-4.87,27.74-17.44,44.28-47.45,44.28-80.29v-63.87l168.05,81.31Z"/>
        <path class="cls-2" d="m168.05,327.26v141.89c0,14.72-1.93,29.1-5.55,42.69l-43.73-21.18C46.14,455.49,0,381.88,0,301.17v-55.22l168.05,81.31Z"/>
      </g>
    </g>
  </g>
</svg>
