<svg width="288" height="49" viewBox="0 0 288 49" fill="none" xmlns="http://www.w3.org/2000/svg">
<path opacity="0.6" d="M17.9995 30.4999L3.99951 44.4999M3.99951 44.4999H15.7135M3.99951 44.4999V32.7859" stroke="#00009D" stroke-width="3" stroke-linecap="round" stroke-linejoin="round"/>
<path d="M30 18.4999L44 4.49988M44 4.49988H32.286M44 4.49988V16.2139" stroke="#00009D" stroke-width="3" stroke-linecap="round" stroke-linejoin="round"/>
<path d="M90 28.5L94 24.5M94 24.5L90 20.5M94 24.5H74" stroke="#00009D" stroke-opacity="0.5" stroke-width="2" stroke-linecap="round" stroke-linejoin="round"/>
<path d="M159.999 8.49976L147.999 20.4998M147.999 20.4998H155.499M147.999 20.4998V12.9998M127.999 40.4998L139.999 28.4998M139.999 28.4998H132.499M139.999 28.4998V35.9998" stroke="#00009D" stroke-width="3" stroke-linecap="round" stroke-linejoin="round"/>
<path opacity="0.5" d="M124 24.4999C124 15.0719 124 10.3579 126.928 7.42788C129.86 4.49988 134.572 4.49988 144 4.49988C153.428 4.49988 158.142 4.49988 161.07 7.42788C164 10.3599 164 15.0719 164 24.4999C164 33.9279 164 38.6419 161.07 41.5699C158.144 44.4999 153.428 44.4999 144 44.4999C134.572 44.4999 129.858 44.4999 126.928 41.5699C124 38.6439 124 33.9279 124 24.4999Z" stroke="#00009D" stroke-width="3"/>
<path d="M210 28.5L214 24.5M214 24.5L210 20.5M214 24.5H194" stroke="#00009D" stroke-opacity="0.5" stroke-width="2" stroke-linecap="round" stroke-linejoin="round"/>
<path fill-rule="evenodd" clip-rule="evenodd" d="M244 24.5C244 15.072 244 10.358 246.928 7.428C249.86 4.5 254.572 4.5 264 4.5C273.428 4.5 278.142 4.5 281.07 7.428C284 10.36 284 15.072 284 24.5C284 33.928 284 38.642 281.07 41.57C278.144 44.5 273.428 44.5 264 44.5C254.572 44.5 249.858 44.5 246.928 41.57C244 38.644 244 33.928 244 24.5ZM252.94 35.56C252.659 35.2788 252.501 34.8975 252.501 34.5C252.501 34.1025 252.659 33.7212 252.94 33.44L257.38 29H255C254.602 29 254.221 28.842 253.939 28.5607C253.658 28.2794 253.5 27.8978 253.5 27.5C253.5 27.1022 253.658 26.7206 253.939 26.4393C254.221 26.158 254.602 26 255 26H261C261.398 26 261.779 26.158 262.061 26.4393C262.342 26.7206 262.5 27.1022 262.5 27.5V33.5C262.5 33.8978 262.342 34.2794 262.061 34.5607C261.779 34.842 261.398 35 261 35C260.602 35 260.221 34.842 259.939 34.5607C259.658 34.2794 259.5 33.8978 259.5 33.5V31.12L255.06 35.56C254.779 35.8409 254.398 35.9987 254 35.9987C253.602 35.9987 253.221 35.8409 252.94 35.56ZM273 23C273.398 23 273.779 22.842 274.061 22.5607C274.342 22.2794 274.5 21.8978 274.5 21.5C274.5 21.1022 274.342 20.7206 274.061 20.4393C273.779 20.158 273.398 20 273 20H270.62L275.06 15.56C275.325 15.2757 275.469 14.8996 275.462 14.511C275.455 14.1224 275.298 13.7516 275.023 13.4768C274.748 13.2019 274.378 13.0445 273.989 13.0377C273.6 13.0308 273.224 13.175 272.94 13.44L268.5 17.88V15.5C268.5 15.1022 268.342 14.7206 268.061 14.4393C267.779 14.158 267.398 14 267 14C266.602 14 266.221 14.158 265.939 14.4393C265.658 14.7206 265.5 15.1022 265.5 15.5V21.5C265.5 22.328 266.172 23 267 23H273Z" fill="#00009D"/>
</svg>
